<?xml version="1.0" encoding="utf-8"?>
<!-- Generator: Adobe Illustrator 23.1.1, SVG Export Plug-In . SVG Version: 6.00 Build 0)  -->
<svg version="1.1" id="레이어_1" xmlns="http://www.w3.org/2000/svg" xmlns:xlink="http://www.w3.org/1999/xlink" x="0px"
	 y="0px" viewBox="0 0 18.85 17.99" style="enable-background:new 0 0 18.85 17.99;" xml:space="preserve">
<style type="text/css">
	.st0{fill:#E2245A;}
	.st1{fill:#F96E89;}
	.st2{display:none;}
	.st3{display:inline;opacity:0.92;fill:#77BC4E;enable-background:new    ;}
	.st4{fill:#231815;}
</style>
<g>
	<path class="st0" d="M18.07,6.42c0-2.4-1.94-4.34-4.34-4.34c-2.2,0-4.02,1.63-4.3,3.76v11.03l0.13-0.13l7.08-7.08l0,0
		C17.52,8.85,18.07,7.7,18.07,6.42z"/>
	<path class="st1" d="M5.12,2.07c-2.4,0-4.34,1.94-4.34,4.34c0,1.28,0.56,2.43,1.44,3.23l0,0l7.08,7.08l0.13,0.13V5.83
		C9.14,3.71,7.32,2.07,5.12,2.07z"/>
</g>
<g id="레이어_4" class="st2">
	<path class="st3" d="M349.13,251.13c0-26.78-21.71-48.49-48.49-48.49c-24.55,0-44.83,18.25-48.03,41.93
		c-3.2-23.67-23.48-41.93-48.03-41.93c-26.78,0-48.49,21.71-48.49,48.49c0,14.3,6.2,27.16,16.05,36.03l0,0l79.04,79.04l1.44,1.44
		l1.44-1.44l79.04-79.04l0,0C342.93,278.28,349.13,265.43,349.13,251.13z"/>
</g>
<g>
	<g>
		<g>
			<path class="st4" d="M-421.01-72.91c3.22,0,3.22-5,0-5S-424.24-72.91-421.01-72.91L-421.01-72.91z"/>
		</g>
	</g>
</g>
<g id="레이어_3">
</g>
</svg>
