<svg width="100px" id="couplering-svg" height="100px" xmlns="http://www.w3.org/2000/svg" xmlns:xlink="http://www.w3.org/1999/xlink" x="0px"
	 y="0px" viewBox="0 0 87.1 104.8" style="enable-background:new 0 0 87.1 104.8;" xml:space="preserve">
<style type="text/css">
	.couplering0{fill:url(#COUPLE_1_);}
	.couplering1{fill:url(#COUPLE_2_);}
	.couplering2{fill:url(#COUPLE_3_);}
	.couplering3{fill:url(#COUPLE_4_);}
	.couplering4{fill:#F95A93;}
	.couplering5{fill:url(#COUPLE_5_);}
	.couplering6{fill:url(#COUPLE_6_);}
	.couplering7{fill:url(#COUPLE_7_);}
	.couplering8{fill:none;}
	.couplering9{fill:url(#COUPLE_8_);}
	.couplering10{fill:url(#COUPLE_9_);}
	.couplering11{fill:url(#COUPLE_10_);}
	.couplering12{fill:url(#COUPLE_11_);}
	.couplering13{fill:#64DDC6;}
	.couplering14{fill:url(#COUPLE_12_);}
	.couplering15{fill:url(#COUPLE_13_);}
	.couplering16{fill:url(#COUPLE_14_);}
	.couplering17{fill:url(#COUPLE_15_);}
	.couplering18{fill:url(#COUPLE_16_);}
	.couplering19{fill:url(#COUPLE_17_);}
	.couplering20{fill:url(#COUPLE_18_);}
	.couplering21{fill:url(#COUPLE_19_);}
</style>
<linearGradient id="COUPLE_1_" gradientUnits="userSpaceOnUse" x1="15.3756" y1="7.6999" x2="25.3657" y2="7.6999" gradientTransform="matrix(1 0 0 -1 0 51.4646)">
	<stop  offset="0" style="stop-color:#00CBC6"/>
	<stop  offset="0.2249" style="stop-color:#09CAC6"/>
	<stop  offset="0.598" style="stop-color:#23C6C6"/>
	<stop  offset="1" style="stop-color:#45C2C6"/>
</linearGradient>
<polygon class="couplering0" points="15.4,41.3 22.6,48.8 22.6,48.8 25.4,38.8 25.3,38.7 23.7,39.1 "/>
<linearGradient id="COUPLE_2_" gradientUnits="userSpaceOnUse" x1="44.5451" y1="-26.5716" x2="83.9583" y2="-26.5716" gradientTransform="matrix(1 0 0 -1 0 51.4646)">
	<stop  offset="0" style="stop-color:#00A2C6"/>
	<stop  offset="0.5123" style="stop-color:#64BAC6"/>
	<stop  offset="1" style="stop-color:#45FDC6"/>
</linearGradient>
<path class="couplering1" d="M74.3,55.5l-2.6,2.1l0,0l0,0c7.8,5.7,11.2,16.1,7.6,25.5C75,94.5,62.3,100.3,50.9,96c-1.3-0.5-2.6-1.1-3.8-1.9
	c-0.8,0.8-1.7,1.5-2.6,2.2c1.6,1.1,3.3,2,5.2,2.7c13.1,4.9,27.6-1.7,32.6-14.8C86.3,73.7,82.7,62.1,74.3,55.5z"/>
<linearGradient id="COUPLE_3_" gradientUnits="userSpaceOnUse" x1="33.423" y1="-20.7313" x2="60.5814" y2="-20.7313" gradientTransform="matrix(1 0 0 -1 0 51.4646)">
	<stop  offset="0" style="stop-color:#00A2C6"/>
	<stop  offset="0.5123" style="stop-color:#64BAC6"/>
	<stop  offset="1" style="stop-color:#45FDC6"/>
</linearGradient>
<path class="couplering2" d="M38,67.6c1.2-3.3,3.1-6.1,5.5-8.3c0.8-0.7,1.6-1.4,2.5-2c4.2-2.9,9.3-4.3,14.5-3.9L60,50.1
	c-6-0.3-11.9,1.6-16.7,5.1c-0.9,0.7-1.7,1.4-2.5,2.2c-2.5,2.5-4.5,5.5-5.8,9c-3.8,10.1-0.7,21.1,6.9,27.8c0.9-0.6,1.8-1.3,2.6-2
	C37.6,86.4,34.7,76.6,38,67.6z"/>
<linearGradient id="COUPLE_4_" gradientUnits="userSpaceOnUse" x1="55.1809" y1="11.6791" x2="63.854" y2="-3.3432" gradientTransform="matrix(1.0063 9.366678e-05 -9.366046e-05 -1.0079 7.9384 53.9874)">
	<stop  offset="0" style="stop-color:#F4B294"/>
	<stop  offset="0.2165" style="stop-color:#F69394"/>
	<stop  offset="0.5335" style="stop-color:#F96093"/>
	<stop  offset="0.7186" style="stop-color:#F93F93"/>
	<stop  offset="0.8941" style="stop-color:#F92593"/>
	<stop  offset="1" style="stop-color:#F91C93"/>
</linearGradient>
<path class="couplering3" d="M74.3,55.5L74.3,55.5l4.2-3.5l-19.4-7.3l0.9,5.4l0.5,3.3c2,0.2,4,0.6,5.9,1.3c1.9,0.7,3.7,1.7,5.3,2.9
	L74.3,55.5L74.3,55.5z"/>
<polygon class="couplering4" points="74.3,55.5 74.3,55.5 71.7,57.6 71.7,57.6 "/>
<linearGradient id="COUPLE_5_" gradientUnits="userSpaceOnUse" x1="67.148" y1="8.2304" x2="76.8578" y2="8.2304" gradientTransform="matrix(1 0 0 -1 0 51.4646)">
	<stop  offset="0" style="stop-color:#F4B294"/>
	<stop  offset="0.3364" style="stop-color:#F68993"/>
	<stop  offset="0.7075" style="stop-color:#F96093"/>
	<stop  offset="0.7224" style="stop-color:#F95E93"/>
	<stop  offset="0.8862" style="stop-color:#F94B93"/>
	<stop  offset="1" style="stop-color:#F94493"/>
</linearGradient>
<polygon class="couplering5" points="76.9,41.7 67.1,38.1 68.8,48.4 "/>
<linearGradient id="COUPLE_6_" gradientUnits="userSpaceOnUse" x1="-2524.0632" y1="595.2835" x2="-2532.9319" y2="600.4041" gradientTransform="matrix(-1 0 0 1 -2452.7998 -551.1241)">
	<stop  offset="3.240000e-02" style="stop-color:#F96093"/>
	<stop  offset="7.100000e-02" style="stop-color:#F75C93"/>
	<stop  offset="0.7029" style="stop-color:#DB1A93"/>
	<stop  offset="1" style="stop-color:#D00093"/>
</linearGradient>
<polygon class="couplering6" points="68.8,48.4 78.5,52.1 76.9,41.7 "/>
<linearGradient id="COUPLE_7_" gradientUnits="userSpaceOnUse" x1="-2521.6094" y1="594.3583" x2="-2511.8945" y2="594.3583" gradientTransform="matrix(-1 0 0 1 -2452.7998 -551.1241)">
	<stop  offset="3.240000e-02" style="stop-color:#F96093"/>
	<stop  offset="0.6379" style="stop-color:#DE2D93"/>
	<stop  offset="1" style="stop-color:#D01393"/>
</linearGradient>
<polygon class="couplering7" points="59.1,44.7 68.8,48.4 67.1,38.1 "/>
<path class="couplering8" d="M50.9,70.8c-1.2-4.7-3.8-8.6-7.3-11.5c-2.4,2.2-4.3,5-5.5,8.3c-3.4,9-0.5,18.8,6.5,24.7
	C50.2,87,53,78.8,50.9,70.8z"/>
<linearGradient id="COUPLE_8_" gradientUnits="userSpaceOnUse" x1="30.9929" y1="4.691347e-02" x2="41.9398" y2="-6.2732" gradientTransform="matrix(1 0 0 -1 0 51.4646)">
	<stop  offset="0" style="stop-color:#F48394"/>
	<stop  offset="0.1088" style="stop-color:#F57094"/>
	<stop  offset="0.2638" style="stop-color:#F75B93"/>
	<stop  offset="0.4395" style="stop-color:#F84D93"/>
	<stop  offset="0.6517" style="stop-color:#F94593"/>
	<stop  offset="1" style="stop-color:#F94293"/>
</linearGradient>
<path class="couplering9" d="M43.4,55.2c-3.6-2.4-7.8-3.8-12.3-4l-0.9,3.1c3.8,0.1,7.5,1.2,10.7,3.1C41.7,56.6,42.5,55.9,43.4,55.2z"/>
<linearGradient id="COUPLE_9_" gradientUnits="userSpaceOnUse" x1="7.9911" y1="-12.4033" x2="51.2859" y2="-37.3995" gradientTransform="matrix(1 0 0 -1 0 51.4646)">
	<stop  offset="0" style="stop-color:#F48394"/>
	<stop  offset="0.1088" style="stop-color:#F57094"/>
	<stop  offset="0.2638" style="stop-color:#F75B93"/>
	<stop  offset="0.4395" style="stop-color:#F84D93"/>
	<stop  offset="0.6517" style="stop-color:#F94593"/>
	<stop  offset="1" style="stop-color:#F94293"/>
</linearGradient>
<path class="couplering10" d="M54,70c-1.3-5.1-4.1-9.5-7.9-12.7c-0.9,0.6-1.7,1.3-2.5,2c3.5,2.8,6.1,6.8,7.3,11.5c2.1,8-0.7,16.2-6.4,21.5
	l0,0c-0.8,0.7-1.6,1.4-2.6,2c0.4,0.4,0.8,0.7,1.3,1.1c-0.4-0.3-0.9-0.7-1.3-1.1c-2,1.4-4.3,2.4-6.8,3c-11.7,3-23.6-4-26.6-15.7
	C6.1,72,10.6,62.1,18.8,57.3L16.5,55c-9,5.6-13.8,16.6-11,27.4c3.4,13.4,17.1,21.4,30.5,18c3.2-0.8,6.1-2.2,8.6-4.1c0,0,0,0,0,0
	c0.9-0.7,1.8-1.4,2.6-2.2l0,0C53.4,88.1,56.3,79,54,70z"/>
<linearGradient id="COUPLE_10_" gradientUnits="userSpaceOnUse" x1="22.6229" y1="7.6999" x2="32.513" y2="7.6999" gradientTransform="matrix(1 0 0 -1 0 51.4646)">
	<stop  offset="0" style="stop-color:#0087C6"/>
	<stop  offset="1" style="stop-color:#64D8C6"/>
</linearGradient>
<polygon class="couplering11" points="25.3,38.7 22.6,48.8 32.4,46.3 32.5,46 "/>
<linearGradient id="COUPLE_11_" gradientUnits="userSpaceOnUse" x1="26.9394" y1="0.8184" x2="37.0766" y2="0.8184" gradientTransform="matrix(0.9894 -1.936305e-04 1.936305e-04 -0.9861 -14.0002 47.0697)">
	<stop  offset="0" style="stop-color:#0087C6"/>
	<stop  offset="1" style="stop-color:#64D8C6"/>
</linearGradient>
<polygon class="couplering12" points="15.4,41.3 12.7,51.2 22.7,48.7 22.4,48.5 "/>
<linearGradient id="COUPLE_12_" gradientUnits="userSpaceOnUse" x1="31.861" y1="47.3959" x2="35.3397" y2="41.3706" gradientTransform="matrix(1 0 0 -1 0 51.4646)">
	<stop  offset="3.240000e-02" style="stop-color:#F96093"/>
	<stop  offset="0.6379" style="stop-color:#DE2D93"/>
	<stop  offset="1" style="stop-color:#D01393"/>
</linearGradient>
<path class="couplering14" d="M37.2,6.6c0-1.1-0.9-1.9-1.9-1.9c-1,0-1.8,0.7-1.9,1.7c-0.1-0.9-0.9-1.7-1.9-1.7c-1.1,0-1.9,0.9-1.9,1.9
	c0,0.6,0.2,1.1,0.6,1.4l0,0l3.2,3.2l0.1,0.1l0.1-0.1L36.5,8l0,0C36.9,7.7,37.2,7.2,37.2,6.6z"/>
<linearGradient id="COUPLE_13_" gradientUnits="userSpaceOnUse" x1="54.3661" y1="41.3643" x2="57.8448" y2="47.3896" gradientTransform="matrix(1 0 0 -1 0 51.4646)">
	<stop  offset="0" style="stop-color:#F96093"/>
	<stop  offset="0.6258" style="stop-color:#DE2D93"/>
	<stop  offset="1" style="stop-color:#D01393"/>
</linearGradient>
<path class="couplering15" d="M60.3,6.6c0-1.1-0.9-1.9-1.9-1.9c-1,0-1.8,0.7-1.9,1.7c-0.1-0.9-0.9-1.7-1.9-1.7c-1.1,0-1.9,0.9-1.9,1.9
	c0,0.6,0.2,1.1,0.6,1.4l0,0l3.2,3.2l0.1,0.1l0.1-0.1L59.6,8l0,0C60,7.7,60.3,7.2,60.3,6.6z"/>
<linearGradient id="COUPLE_14_" gradientUnits="userSpaceOnUse" x1="34.7704" y1="27.6647" x2="31.2919" y2="21.6396" gradientTransform="matrix(1 0 0 -1 0 51.4646)">
	<stop  offset="3.240000e-02" style="stop-color:#F96093"/>
	<stop  offset="0.6379" style="stop-color:#DE2D93"/>
	<stop  offset="1" style="stop-color:#D01393"/>
</linearGradient>
<path class="couplering16" d="M37.2,26.3c0-1.1-0.9-1.9-1.9-1.9c-1,0-1.8,0.7-1.9,1.7c-0.1-0.9-0.9-1.7-1.9-1.7c-1.1,0-1.9,0.9-1.9,1.9
	c0,0.6,0.2,1.1,0.6,1.4l0,0l3.2,3.2l0.1,0.1l0.1-0.1l3.2-3.2l0,0C36.9,27.4,37.2,26.9,37.2,26.3z"/>
<linearGradient id="COUPLE_15_" gradientUnits="userSpaceOnUse" x1="58.4158" y1="21.6434" x2="54.9371" y2="27.6685" gradientTransform="matrix(1 0 0 -1 0 51.4646)">
	<stop  offset="3.240000e-02" style="stop-color:#F96093"/>
	<stop  offset="0.6379" style="stop-color:#DE2D93"/>
	<stop  offset="1" style="stop-color:#D01393"/>
</linearGradient>
<path class="couplering17" d="M60.3,26.3c0-1.1-0.9-1.9-1.9-1.9c-1,0-1.8,0.7-1.9,1.7c-0.1-0.9-0.9-1.7-1.9-1.7c-1.1,0-1.9,0.9-1.9,1.9
	c0,0.6,0.2,1.1,0.6,1.4l0,0l3.2,3.2l0.1,0.1l0.1-0.1l3.2-3.2l0,0C60,27.4,60.3,26.9,60.3,26.3z"/>
<linearGradient id="COUPLE_16_" gradientUnits="userSpaceOnUse" x1="20.2101" y1="31.6298" x2="23.686" y2="37.6506" gradientTransform="matrix(1 0 0 -1 0 51.4646)">
	<stop  offset="0" style="stop-color:#0087C6"/>
	<stop  offset="1" style="stop-color:#64D8C6"/>
</linearGradient>
<path class="couplering18" d="M26.1,16.3c0-1.1-0.9-1.9-1.9-1.9c-1,0-1.8,0.7-1.9,1.7c-0.1-1-0.9-1.7-1.9-1.7c-1.1,0-1.9,0.9-1.9,1.9
	c0,0.6,0.2,1.1,0.6,1.4l0,0l3.2,3.2l0.1,0.1l0.1-0.1l3.2-3.2l0,0C25.9,17.4,26.1,16.9,26.1,16.3z"/>
<linearGradient id="COUPLE_17_" gradientUnits="userSpaceOnUse" x1="40.5985" y1="33.7714" x2="48.3436" y2="33.7714" gradientTransform="matrix(1 0 0 -1 0 51.4646)">
	<stop  offset="0" style="stop-color:#0087C6"/>
	<stop  offset="0.1729" style="stop-color:#058BC6"/>
	<stop  offset="0.3904" style="stop-color:#1598C6"/>
	<stop  offset="0.6318" style="stop-color:#2FADC6"/>
	<stop  offset="0.8886" style="stop-color:#52CAC6"/>
	<stop  offset="1" style="stop-color:#64D8C6"/>
</linearGradient>
<path class="couplering19" d="M48.3,16.3c0-1.1-0.9-1.9-1.9-1.9c-1,0-1.8,0.7-1.9,1.7c-0.1-0.9-0.9-1.7-1.9-1.7c-1.1,0-1.9,0.9-1.9,1.9
	c0,0.6,0.2,1.1,0.6,1.4l0,0l3.2,3.2l0.1,0.1l0.1-0.1l3.2-3.2l0,0C48.1,17.4,48.3,16.9,48.3,16.3z"/>
<linearGradient id="COUPLE_18_" gradientUnits="userSpaceOnUse" x1="64.3617" y1="32.7875" x2="69.0398" y2="37.4656" gradientTransform="matrix(1 0 0 -1 0 51.4646)">
	<stop  offset="0" style="stop-color:#0087C6"/>
	<stop  offset="0.1773" style="stop-color:#179AC6"/>
	<stop  offset="0.5419" style="stop-color:#41BBC6"/>
	<stop  offset="0.8286" style="stop-color:#5AD0C6"/>
	<stop  offset="1" style="stop-color:#64D8C6"/>
</linearGradient>
<path class="couplering20" d="M70.6,16.3c0-1.1-0.9-1.9-1.9-1.9c-1,0-1.8,0.7-1.9,1.7c-0.1-0.9-0.9-1.7-1.9-1.7c-1.1,0-1.9,0.9-1.9,1.9
	c0,0.6,0.2,1.1,0.6,1.4l0,0l3.2,3.2l0.1,0.1l0.1-0.1l3.2-3.2l0,0C70.3,17.4,70.6,16.9,70.6,16.3z"/>
<linearGradient id="COUPLE_19_" gradientUnits="userSpaceOnUse" x1="12.6529" y1="-0.2982" x2="32.4929" y2="-0.2982" gradientTransform="matrix(1 0 0 -1 0 51.4646)">
	<stop  offset="0" style="stop-color:#007DC6"/>
	<stop  offset="1" style="stop-color:#64D8C6"/>
</linearGradient>
<path class="couplering21" d="M24.2,55.1c2-0.5,4-0.7,6-0.7l0.9-3.2l1.4-5.1l-9.9,2.6l0,0l0,0l-9.9,2.5l3.7,3.8l2.3,2.4
	C20.4,56.4,22.2,55.6,24.2,55.1z"/>
</svg>
