<svg enable-background="new 0 0 18.85 17.99" version="1.1" viewBox="0 0 18.85 17.99" xml:space="preserve" xmlns="http://www.w3.org/2000/svg">
<style type="text/css">
	.st0{fill:#E2245A;}
	.st1{fill:#F96E89;}
	.st2{display:none;}
	.st3{display:inline;opacity:0.92;fill:#fff;enable-background:new    ;}
</style>
	<path class="st0" d="m18.07 6.42c0-2.4-1.94-4.34-4.34-4.34-2.2 0-4.02 1.63-4.3 3.76v11.03l7.21-7.21c0.88-0.81 1.43-1.96 1.43-3.24z"/>
	<path class="st1" d="m5.12 2.07c-2.4 0-4.34 1.94-4.34 4.34 0 1.28 0.56 2.43 1.44 3.23l7.21 7.21v-11.02c-0.29-2.12-2.11-3.76-4.31-3.76z"/>
<g class="st2">
	<path class="st3" d="m349.13 251.13c0-26.78-21.71-48.49-48.49-48.49-24.55 0-44.83 18.25-48.03 41.93-3.2-23.67-23.48-41.93-48.03-41.93-26.78 0-48.49 21.71-48.49 48.49 0 14.3 6.2 27.16 16.05 36.03l80.48 80.48 80.48-80.48c9.83-8.88 16.03-21.73 16.03-36.03z"/>
</g>
</svg>
