<svg version="1.1" height="40px" xmlns="http://www.w3.org/2000/svg" xmlns:xlink="http://www.w3.org/1999/xlink" x="0px"
	 y="0px" viewBox="0 0 551.82 42.04" preserveAspectRatio="xMidYMid meet" xml:space="preserve">
<style type="text/css">
	.heartline0{fill:#56B76D;}
	.heartline1{fill:#20933E;}
	.heartline2{fill:#55ABDC;}
	.heartline3{fill:#2D88C9;}
	.heartline4{fill:#D27C7C;}
	.heartline5{fill:#C1322E;}
	.heartline6{fill:#EB9F5F;}
	.heartline7{fill:#EF7B1D;}
	.heartline8{fill:#31449A;}
	.heartline9{fill:#1B284F;}
	.heartline10{fill:#E4BED9;}
	.heartline11{fill:#CA8BB4;}
	.heartline12{fill:none;stroke:#231815;stroke-width:0.7;stroke-miterlimit:10;}
</style>
<g>
	<path class="heartline0" d="M176.66,16.07c0-3.78-3.06-6.84-6.84-6.84c-3.46,0-6.32,2.57-6.77,5.91V32.5l0.2-0.2l11.14-11.14l0,0
		C175.79,19.9,176.66,18.09,176.66,16.07z"/>
	<path class="heartline1" d="M156.28,9.24c-3.78,0-6.84,3.06-6.84,6.84c0,2.02,0.87,3.83,2.26,5.08l0,0l11.14,11.14l0.2,0.2V15.15
		C162.6,11.81,159.74,9.24,156.28,9.24z"/>
	<path class="heartline2" d="M222.67,16.07c0-3.78-3.06-6.84-6.84-6.84c-3.46,0-6.32,2.57-6.77,5.91V32.5l0.2-0.2l11.14-11.14l0,0
		C221.8,19.9,222.67,18.09,222.67,16.07z"/>
	<path class="heartline3" d="M202.29,9.24c-3.78,0-6.84,3.06-6.84,6.84c0,2.02,0.87,3.83,2.26,5.08l0,0l11.14,11.14l0.2,0.2V15.15
		C208.61,11.81,205.75,9.24,202.29,9.24z"/>
	<path class="heartline4" d="M270.22,16.07c0-3.78-3.06-6.84-6.84-6.84c-3.46,0-6.32,2.57-6.77,5.91V32.5l0.2-0.2l11.14-11.14l0,0
		C269.34,19.9,270.22,18.09,270.22,16.07z"/>
	<path class="heartline5" d="M249.84,9.24c-3.78,0-6.84,3.06-6.84,6.84c0,2.02,0.87,3.83,2.26,5.08l0,0l11.14,11.14l0.2,0.2V15.15
		C256.16,11.81,253.3,9.24,249.84,9.24z"/>
	<path class="heartline6" d="M408.25,16.07c0-3.78-3.06-6.84-6.84-6.84c-3.46,0-6.32,2.57-6.77,5.91V32.5l0.2-0.2l11.14-11.14l0,0
		C407.38,19.9,408.25,18.09,408.25,16.07z"/>
	<path class="heartline7" d="M387.87,9.24c-3.78,0-6.84,3.06-6.84,6.84c0,2.02,0.87,3.83,2.26,5.08l0,0l11.14,11.14l0.2,0.2V15.15
		C394.19,11.81,391.33,9.24,387.87,9.24z"/>
	<path class="heartline8" d="M317.76,16.07c0-3.78-3.06-6.84-6.84-6.84c-3.46,0-6.32,2.57-6.77,5.91V32.5l0.2-0.2l11.14-11.14l0,0
		C316.89,19.9,317.76,18.09,317.76,16.07z"/>
	<path class="heartline9" d="M297.38,9.24c-3.78,0-6.84,3.06-6.84,6.84c0,2.02,0.87,3.83,2.26,5.08l0,0l11.14,11.14l0.2,0.2V15.15
		C303.7,11.81,300.84,9.24,297.38,9.24z"/>
	<path class="heartline10" d="M363.77,16.07c0-3.78-3.06-6.84-6.84-6.84c-3.46,0-6.32,2.57-6.77,5.91V32.5l0.2-0.2l11.14-11.14l0,0
		C362.9,19.9,363.77,18.09,363.77,16.07z"/>
	<path class="heartline11" d="M343.39,9.24c-3.78,0-6.84,3.06-6.84,6.84c0,2.02,0.87,3.83,2.26,5.08l0,0l11.14,11.14l0.2,0.2V15.15
		C349.71,11.81,346.85,9.24,343.39,9.24z"/>
</g>
<line class="heartline12" x1="126.82" y1="20.87" x2="4.72" y2="20.87"/>
<line class="heartline12" x1="547.82" y1="20.87" x2="425.72" y2="20.87"/>
</svg>
