<svg xmlns="http://www.w3.org/2000/svg" viewBox="0 0 533.58 284.69"><style>.map-path-0{fill:#e48c9f}</style><path class="map-path-0" d="M124.92 115.62c3.4 2.65 6.81 5.3 10.21 7.95.72.56 1.47 1.13 2.37 1.28 3.2.53 4.37-4.63 2.29-7.12s-5.52-3.34-8.05-5.37c-6.05-4.85-5.08-14.16-3.53-21.75.45-2.22.99-4.61 2.68-6.13 2.03-1.84 5.16-1.9 7.41-3.46 2.85-1.97 3.62-5.74 4.74-9.02 1.13-3.28 3.6-6.82 7.05-6.56 3.52.27 5.69 4.38 9.17 5.01 4.44.8 7.47-4.13 9.92-7.92 4.01-6.19 11.08-11.38 18.3-9.89 6.39 1.32 11.41 7.55 17.94 7.28 6.05-.25 10.48-6.02 16.36-7.47 3.77-.93 7.83.01 11.57-1.04 2.81-.78 5.18-2.6 7.58-4.25a76.57 76.57 0 0114.88-7.96c2.31-.92 4.87-1.74 7.25-1 1.75.54 3.14 1.85 4.77 2.67 4.68 2.34 10.21.31 15.37-.57 6.52-1.12 13.73-.13 18.77 4.16 5.04 4.29 7.08 12.33 3.38 17.82-.63.94-1.42 1.83-1.65 2.93-.2.98.08 1.98.14 2.97.41 6.04-6.23 9.76-11.69 12.36-5.46 2.6-11.64 7.73-9.56 13.41 2.31 6.3 12.08 5.06 16.93.42s7.84-11.39 13.82-14.44c8.05-4.11 17.94.18 26.76-1.74 2.27-.49 4.6-1.4 6.84-.79 3.5.95 5.03 5.1 5.27 8.72s-.25 7.47 1.4 10.7c3.03 5.93 11.07 6.51 17.09 9.35 4.81 2.27 8.61 6.26 13.32 8.72s11.33 2.89 14.63-1.27c1.42-1.79 2.06-4.25 3.92-5.58 1.55-1.11 3.6-1.18 5.5-1.01 8.99.81 16.95 5.9 24.5 10.85 5.81 3.8 11.81 7.8 15.41 13.74 5.32 8.78 3.9 21.08-3.27 28.42 4.04 2.54 8.59 5.98 8.37 10.74-.1 2.13-1.2 4.11-2.63 5.7-5.19 5.79-14.02 6.68-21.67 5.3-7.65-1.38-14.91-4.59-22.62-5.55-12.59-1.58-25.06 2.91-36.96 7.32-9.28 3.44-18.65 6.93-26.94 12.33-3.98 2.58-8.06 5.72-12.8 5.67-8.95-.09-13.58-11.01-13.55-19.96-4.47-1.01-8.78 2.72-10.64 6.91-1.86 4.19-2.14 8.92-3.64 13.25-1.59 4.58-4.49 8.58-7.53 12.36-2.39 2.98-4.62 3.54-8.42 4-2.16.26-4.95 2.15-7.02 1.52-9.86-3.04-19.72-6.07-29.59-9.11-6.61-2.04-14.32-3.92-20 .01-3.7 2.56-5.86 7.26-10.08 8.82-4.41 1.63-9.48-1-12.17-4.86s-3.54-8.66-4.33-13.3c1.18-1.88 4.13-1.35 5.92-.04s3.31 3.22 5.49 3.64c4.03.78 7.07-4.43 5.95-8.38-1.12-3.95-4.64-6.65-7.88-9.18-3.23-2.53-6.6-5.56-7.15-9.63-3.44 2.2-6.89 4.41-10.33 6.61-7.02-.33-12.55-8.32-10.37-15.01-2.17-2-5.71-.08-7.53 2.25-1.82 2.33-3.47 5.32-6.38 5.81-2 .33-3.95-.67-5.93-1.05-8.72-1.68-19.13 8.01-25.41 1.73-3.01 1.06-4.52 5.08-2.95 7.86-2.39 1.6-5.41 3.16-8.01 1.93-3.2-1.51-3.35-5.89-4.64-9.19-1.29-3.3-7.06-5.16-7.64-1.67-1-3.38-2.01-6.76-3.01-10.14-8.12 5.75-9.39 19.01-2.5 26.18 1.73 1.8 4.05 3.76 3.59 6.22-.6 3.24-5.4 3.51-8.2 1.77-2.8-1.74-4.98-4.66-8.19-5.42-2.13-.51-4.58-.02-6.39-1.27-2.45-1.7-2.13-5.41-1.15-8.23 3.77-10.87 13.27-20.32 12.27-31.78-.4-4.61-2.55-8.97-2.67-13.6-.12-4.63 3.11-10 7.72-9.52 6.89.73 7.94 12.73 14.84 13.37 2.82-2.18.64-6.53-.64-9.86-2.07-5.45-.42-14.74 3.62-18.97M447.18 77.42c-1.9 3.67-3.81 7.33-5.71 11-.62 1.19-1.26 2.5-1.04 3.83.2 1.17 1.02 2.11 1.84 2.97 1.55 1.62 3.19 3.16 4.9 4.6.21.17.43.35.7.38.32.03.62-.16.88-.36 2.79-2.15 4.1-5.66 5.28-8.98.21-.58.42-1.2.3-1.81-.28-1.51-2.38-2.26-2.43-3.8-.03-.83.57-1.52.88-2.29.59-1.48.01-3.26-1.16-4.34s-2.83-1.52-4.42-1.49M460.1 79.97c2.18 3.28 2.22 7.85.1 11.17-1.14 1.78-2.89 3.38-2.98 5.49-.12 2.94 3.05 4.91 5.92 5.56 2.87.65 6.08.74 8.3 2.67 4.08 3.56 2.62 11.43 7.37 14.02 3.4 1.85 7.62-.5 10.18-3.4 2.56-2.9 4.53-6.54 7.96-8.33 1.1-.57 2.33-.95 3.21-1.81 2.9-2.86-.16-8.17 1.8-11.74 1.05-1.9 3.38-2.98 3.97-5.06.67-2.37-1.24-4.61-2.99-6.34-1.89-1.85-3.77-3.71-5.66-5.56-2.78-2.74-6.17-5.69-10.04-5.15-1.6.22-3.07 1.04-4.67 1.29-1.51.24-3.04-.04-4.55-.18-6.53-.58-13.26 1.65-18.15 6.01"/><path class="map-path-0" d="M378.58 74.06a17.255 17.255 0 01-6.91 1.71c-2.92.1-5.93-.54-8.72.3-2.8.84-5.2 4.1-3.74 6.64 1.69 2.93 6.05 1.87 9.39 2.33 4.38.6 7.58 4.24 10.8 7.27 3.22 3.03 7.73 5.78 11.83 4.12 1.44-.58 2.63-1.66 4.07-2.22 4.99-1.94 11.07 2.72 15.73.08 1.39-.78 2.43-2.15 3.93-2.69 2.76-1 5.89 1.14 8.7.28 3.21-.98 4.08-5.03 4.38-8.37.22-2.45.18-5.42-1.92-6.7-2.42-1.47-5.36.52-7.92 1.76-3.32 1.61-7.23 1.93-10.77.9-1.01-.3-2.06-.7-3.08-.42-1.92.53-2.59 3.18-4.48 3.8-2.74.9-4.79-3-7.65-3.38-.92-.12-1.86.13-2.77-.07-1.12-.25-1.95-1.15-2.8-1.92a15.051 15.051 0 00-6.78-3.47M264.7 228.18c1.33 1.27 2.65 2.55 3.98 3.82.51.49 1.03.99 1.61 1.38 1.18.79 2.63 1.15 4.04 1 .21-.02.44-.06.64.01.16.05.29.17.42.28.69.6 1.43 1.27 1.62 2.17.09.4.05.84.21 1.22.15.37.46.65.76.92.86.76 1.72 1.53 2.57 2.29.13.12.28.25.46.25.22.01.4-.16.59-.27.67-.38 1.55-.03 2.06.55.51.57.78 1.32 1.17 1.98.39.66 1 1.29 1.77 1.33.77.05 1.43-.49 2.05-.95.62-.46 1.42-.87 2.13-.57.22-.63-.25-1.26-.58-1.83-.39-.69-.62-1.49-.52-2.27.1-.78.57-1.54 1.29-1.87.14-.07.31-.12.46-.06.13.05.22.18.28.31.39.83.14 2.04.92 2.52.76.47 1.69-.23 2.3-.88l2.96-3.14c.51-.54 1.06-1.18 1.02-1.93-.02-.38-.2-.73-.44-1.03-.75-.94-2.07-1.33-3.26-1.11-1.19.22-2.23.97-2.99 1.9-.48.03-.59-.67-.94-.99-.23-.21-.57-.25-.88-.29-.94-.09-1.91-.18-2.82.07-.59.16-1.14.47-1.75.55-.53.07-1.07-.05-1.58-.2-1.03-.3-2.02-.75-2.93-1.33-.63-.4-1.24-.88-1.97-1.07-.37-.1-.76-.12-1.11-.26-.42-.17-.76-.49-1.06-.84-.98-1.11-1.78-2.57-3.2-2.99-1.04-.31-2.14.02-3.2.25-1.39.3-2.81.42-4.23.36-.74-.03-1.62-.04-2.03.58M141.36 218.34c2.86 1.75 4.76 4.78 5.73 7.99.97 3.21 1.09 6.61 1.04 9.96-.01.37-.02.76-.22 1.07-.27.41-.8.56-1.26.74-2.67 1.1-3.69 4.29-5.65 6.41a8.67 8.67 0 01-4.95 2.64c-.36.06-.75.08-1.06-.12-.45-.3-.49-.98-.26-1.47.22-.49.63-.88.94-1.32 1.15-1.66.65-4.22-1.04-5.33-.66-.43-1.43-.65-2.07-1.1-1.25-.89-1.75-2.47-2.16-3.95-.08-.3-.17-.62-.1-.93.09-.41.43-.7.68-1.03.79-1.02.84-2.45.45-3.68-.39-1.22-1.16-2.28-1.92-3.32-.26-.35-.55-.73-.98-.82-.41-.09-.85.11-1.26.01-.53-.14-.8-.72-.99-1.24-1.15-3.06-2.31-6.12-3.46-9.18-.36-.96-.73-2.02-.38-2.99.21-.58.65-1.05 1.12-1.46 3.51-3.05 8.64-3.42 12.55-5.94 2.76-1.78 4.78-4.55 7.62-6.2 1.73-1.01 3.69-1.56 5.63-2.09 1.72-.48 3.93-.8 4.97.66.82 1.15.34 2.83-.65 3.84-.98 1.01-2.34 1.54-3.6 2.18-1.76.89-3.39 2.04-4.83 3.39-.32.3-.64.63-.74 1.05-.09.37 0 .76.15 1.11.82 1.89 3.75 2.4 5.16.88.4-.43.72-.99 1.28-1.14.37-.1.76.01 1.14-.01 1.07-.05 1.82-1.06 2.3-2.02.56-1.11 1.33-2.5 2.56-2.35 1.08.13 1.59 1.36 2.09 2.32s1.75 1.9 2.57 1.18c.42-.36.48-.98.48-1.53 0-3.35-1.14-6.69-3.18-9.34 3.12-2.18 7.47-2.46 10.83-.68 1.01.53 1.94 1.24 3.03 1.58 1.18.37 2.48.3 3.66.68 3.22 1.04 4.45 4.89 6.91 7.22 1.58 1.5 3.8 2.49 4.66 4.5.17.41.28.87.17 1.31-.1.39-.37.72-.65 1.01-1.59 1.58-3.98 2.16-6.22 1.98-2.24-.19-4.36-1.05-6.38-2.04-1.59-.77-3.42-1.63-5.04-.92.24 1.98 2.37 3.11 4.3 3.63 1.93.52 4.1.86 5.35 2.41.17.21.33.46.3.73-.03.3-.27.53-.49.73-1.38 1.2-3.06 2.22-4.89 2.22-1.89 0-3.6-1.09-5.07-2.28-1.47-1.19-2.85-2.56-4.59-3.29-1.74-.73-4.01-.66-5.25.77 1.94 1.64 3.88 3.28 5.81 4.92.26.22.53.46.57.79.04.31-.13.6-.3.87a16.48 16.48 0 01-7.67 6.27c-.58.23-1.22.43-1.83.27-.59-.15-1.05-.61-1.39-1.12-1.41-2.12-1.07-5.08-2.53-7.17-.54-.77-1.29-1.36-2.03-1.94-1.01-.8-2.02-1.59-3.03-2.39-.45-.35-.91-.71-1.46-.88-1.02-.31-2.16.16-2.93.9s-1.25 1.73-1.72 2.69M294.53 224.07c-.79-.86-1.56-1.98-2.55-2.61-1.12-.71-2.69-.56-3.9-.19-.54.16-1.09.56-1.61.66-.2.04-.47-.04-.69-.04-.36 0-.74.06-1.09.18-1.29.45-2.52 1.21-3.74 1.82-.51.25-.75.82-.73 1.38-.01.05-.01.1-.01.15v.03c0 .35.12.71.42 1.03 1.63 1.73 3.85 2.48 6.19 2.39.49-.02.92-.01 1.4.12.58.16 1.13.39 1.71.52 1.1.25 2.27.24 3.35-.09 1.04-.32 2.41-.97 2.9-2.01.63-1.36-.85-2.47-1.65-3.34zM228.41 263.38c-1.46-.22-2.69.35-4.05.77-1.22.37-2.22.02-3.17-.8-1.09-.94-1.89-2.15-2.81-3.24-1.04-1.24-2.22-2.21-3.73-2.81-.78-.31-1.7.34-1.91 1.08-.05.18-.06.35-.05.52-.1.14-.17.3-.2.47-.36 2.5-.8 5.01-1.07 7.53-.13 1.18-.1 2.41.3 3.54.34.96 1.01 1.81 1.25 2.8.25 1.02-.05 2.06.5 3.04.52.93 1.51 1.46 2.54 1.56.99.1 1.93-.2 2.73-.79.5-.37.89-.8 1.27-1.3.07-.09.13-.19.19-.29.27.21.53.42.8.63.56.43 1.13.81 1.78 1.07 1.37.56 2.82.44 4.15-.17 2.75-1.28 3.81-4.26 4.3-7.05.23-1.3.5-2.67.13-3.96-.38-1.41-1.53-2.39-2.95-2.6zM194.16 262.64a60.957 60.957 0 00-5.82-4.54c-.18-.2-.42-.36-.74-.44-3.6-.97-7.39.42-9.57 3.42-.45.61-.81 1.29-1.28 1.89-.5.63-.93.83-1.7.99-1.94.39-3.04 2.29-1.98 4.11 1.07 1.83 3.72 1.98 5.6 2.03 2.14.06 4.17-.56 6.29-.65 2.05-.09 3.62 1.2 5.6 1.43 2.12.24 3.68-1.04 4.9-2.63.7-.92 1.24-1.84.88-3.03-.32-1.1-1.36-1.86-2.18-2.58zM209.66 236.78c-.75.32-1.31 1.06-1.42 1.86-.06.4-.05.87-.38 1.1-.25.17-.58.12-.88.06-3.25-.62-6.59-.75-9.88-.38-.62.07-1.29.18-1.74.62-.73.73-.46 2.06.3 2.77.75.71 1.82.97 2.83 1.2l8.18 1.86c.54.12 1.09.25 1.55.56.51.34.86.86 1.32 1.27 1.55 1.41 3.89 1.31 5.98 1.41 2.12.1 4.22.48 6.23 1.15.26.09.58.17.8 0 .14-.11.2-.29.25-.45.53-1.74 1.04-3.73.09-5.29-.42-.69-1.07-1.19-1.71-1.68-2.78-2.11-5.58-4.19-8.42-6.24-.39-.28-.79-.56-1.26-.66-.47-.09-1.02.06-1.24.48M475.23 107.95l-2.56.5 2.56-.5zM475.32 107.93l-.09.02.06.07z"/><path d="M22.97 202.07s130.99 38.4 221.65-29.09" fill="none" stroke="#c1322e" stroke-width="2" stroke-linecap="round" stroke-linejoin="round" stroke-miterlimit="10" stroke-dasharray="1,8"/><linearGradient id="SVGID_1_" gradientUnits="userSpaceOnUse" x1="288.752" y1="191.026" x2="475.759" y2="191.026"><stop offset="0" stop-color="#91d2e2"/><stop offset=".034" stop-color="#89cce1"/><stop offset=".195" stop-color="#6bb3da"/><stop offset=".366" stop-color="#529fd3"/><stop offset=".548" stop-color="#3f92ce"/><stop offset=".747" stop-color="#318acb"/><stop offset="1" stop-color="#2d88c9"/></linearGradient><path d="M474.76 192.87s-105.6 48.4-185.01-20.26" fill="none" stroke="url(#SVGID_1_)" stroke-width="2" stroke-linecap="round" stroke-linejoin="round" stroke-miterlimit="10" stroke-dasharray="1,8"/><path d="M79.37 119.17s84.19-48.66 150.46 21.48" fill="none" stroke="#d9b5d2" stroke-width="2" stroke-linecap="round" stroke-linejoin="round" stroke-miterlimit="10" stroke-dasharray="1,8"/><path d="M218.96 19.18s42.82 35.3 41.77 99.1" fill="none" stroke="#20933e" stroke-width="2" stroke-linecap="round" stroke-linejoin="round" stroke-miterlimit="10" stroke-dasharray="1,5"/><linearGradient id="SVGID_2_" gradientUnits="userSpaceOnUse" x1="293.639" y1="84.351" x2="378.828" y2="84.351"><stop offset="0" stop-color="#505da8"/><stop offset=".134" stop-color="#4c58a1"/><stop offset=".37" stop-color="#414b8c"/><stop offset=".68" stop-color="#2f396d"/><stop offset="1" stop-color="#1b284f"/></linearGradient><path d="M377.83 48.57s-61.61-1.71-83.19 71.56" fill="none" stroke="url(#SVGID_2_)" stroke-width="2" stroke-linecap="round" stroke-linejoin="round" stroke-miterlimit="10" stroke-dasharray="1,8"/><linearGradient id="SVGID_3_" gradientUnits="userSpaceOnUse" x1="329.784" y1="122.494" x2="507.728" y2="122.494"><stop offset="0" stop-color="#edf2c3"/><stop offset=".051" stop-color="#eeedb8"/><stop offset=".209" stop-color="#eedb97"/><stop offset=".377" stop-color="#eece7e"/><stop offset=".555" stop-color="#edc36c"/><stop offset=".752" stop-color="#edbd61"/><stop offset="1" stop-color="#edbb5e"/></linearGradient><path d="M506.73 112.28s-107.98-44.71-175.94 33.2" fill="none" stroke="url(#SVGID_3_)" stroke-width="2" stroke-linecap="round" stroke-linejoin="round" stroke-miterlimit="10" stroke-dasharray="1,8"/><path d="M491.55 187.74a2.5 2.5 0 00-2.45-2.54c-1.26-.02-2.32.9-2.51 2.12a2.49 2.49 0 00-2.43-2.2 2.5 2.5 0 00-2.54 2.45c-.01.74.3 1.4.79 1.87l4 4.13.07.08.08-.07 4.13-4c.51-.45.84-1.1.86-1.84z" fill="#2d88c9"/><path d="M525.44 117.61c.67-1.2.24-2.72-.97-3.39-1.1-.61-2.47-.3-3.21.68.45-1.14-.01-2.47-1.11-3.09-1.2-.67-2.72-.24-3.39.97-.36.64-.4 1.38-.18 2.02l1.58 5.53.03.1.1-.03 5.53-1.58c.66-.14 1.26-.56 1.62-1.21z" fill="#edbb5e"/><path d="M394.91 47.46c.17-1.37-.79-2.62-2.16-2.79-1.25-.16-2.41.64-2.72 1.83a2.496 2.496 0 00-4.97-.29 2.5 2.5 0 00.58 1.94l3.52 4.55.06.08.08-.06 4.55-3.52c.57-.39.97-1.01 1.06-1.74z" fill="#1b284f"/><path d="M215.36 7.66a2.5 2.5 0 00-3.48-.61 2.497 2.497 0 00-.78 3.19 2.49 2.49 0 00-3.26-.34 2.5 2.5 0 00-.61 3.48c.42.6 1.06.96 1.74 1.04l5.67.99.1.02.02-.1.99-5.67c.15-.68.03-1.4-.39-2z" fill="#20933e"/><path d="M71.99 119.28c-.92-1.02-2.5-1.1-3.52-.18a2.5 2.5 0 00-.39 3.26 2.495 2.495 0 00-3.46 3.58c.49.55 1.17.82 1.86.82l5.74.29.1.01.01-.1.29-5.74c.07-.69-.13-1.39-.63-1.94z" fill="#ca8bb4"/><path d="M15.91 197.52a2.494 2.494 0 00-2.88-2.04 2.5 2.5 0 00-2.07 2.54 2.494 2.494 0 00-4.84 1.17c.12.73.55 1.32 1.13 1.69l4.7 3.32.09.06.06-.09 3.32-4.7c.41-.52.61-1.22.49-1.95z" fill="#c1322e"/></svg>