<?xml version="1.0" encoding="utf-8"?>
<!-- Generator: Adobe Illustrator 23.1.1, SVG Export Plug-In . SVG Version: 6.00 Build 0)  -->
<svg version="1.1" width="600px" id="레이어_1" xmlns="http://www.w3.org/2000/svg" xmlns:xlink="http://www.w3.org/1999/xlink" x="0px"
	 y="0px" viewBox="0 0 533.58 284.69" style="enable-background:new 0 0 533.58 284.69;" xml:space="preserve">
<style type="text/css">
	.map-path-0{fill:#E48C9F;}
	
		.map-path-1{fill:none;stroke:#C1322E;stroke-width:2;stroke-linecap:round;stroke-linejoin:round;stroke-miterlimit:10;stroke-dasharray:1,8;}
	
		.map-path-2{fill:none;stroke:url(#SVGID_1_);stroke-width:2;stroke-linecap:round;stroke-linejoin:round;stroke-miterlimit:10;stroke-dasharray:1,8;}
	
		.map-path-3{fill:none;stroke:#D9B5D2;stroke-width:2;stroke-linecap:round;stroke-linejoin:round;stroke-miterlimit:10;stroke-dasharray:1,8;}
	
		.map-path-4{fill:none;stroke:#20933E;stroke-width:2;stroke-linecap:round;stroke-linejoin:round;stroke-miterlimit:10;stroke-dasharray:1,5;}
	
		.map-path-5{fill:none;stroke:url(#SVGID_2_);stroke-width:2;stroke-linecap:round;stroke-linejoin:round;stroke-miterlimit:10;stroke-dasharray:1,8;}
	
		.map-path-6{fill:none;stroke:url(#SVGID_3_);stroke-width:2;stroke-linecap:round;stroke-linejoin:round;stroke-miterlimit:10;stroke-dasharray:1,8;}
	.map-path-7{fill:#2D88C9;}
	.map-path-8{fill:#FF7D00;}
	.map-path-9{fill:#1B284F;}
	.map-path-10{fill:#20933E;}
	.map-path-11{fill:#CA8BB4;}
	.map-path-12{fill:#C1322E;}
</style>
<g>
	<g>
		<path class="map-path-0" d="M124.92,115.62c3.4,2.65,6.81,5.3,10.21,7.95c0.72,0.56,1.47,1.13,2.37,1.28c3.2,0.53,4.37-4.63,2.29-7.12
			c-2.08-2.49-5.52-3.34-8.05-5.37c-6.05-4.85-5.08-14.16-3.53-21.75c0.45-2.22,0.99-4.61,2.68-6.13c2.03-1.84,5.16-1.9,7.41-3.46
			c2.85-1.97,3.62-5.74,4.74-9.02c1.13-3.28,3.6-6.82,7.05-6.56c3.52,0.27,5.69,4.38,9.17,5.01c4.44,0.8,7.47-4.13,9.92-7.92
			c4.01-6.19,11.08-11.38,18.3-9.89c6.39,1.32,11.41,7.55,17.94,7.28c6.05-0.25,10.48-6.02,16.36-7.47
			c3.77-0.93,7.83,0.01,11.57-1.04c2.81-0.78,5.18-2.6,7.58-4.25c4.65-3.19,9.65-5.87,14.88-7.96c2.31-0.92,4.87-1.74,7.25-1
			c1.75,0.54,3.14,1.85,4.77,2.67c4.68,2.34,10.21,0.31,15.37-0.57c6.52-1.12,13.73-0.13,18.77,4.16
			c5.04,4.29,7.08,12.33,3.38,17.82c-0.63,0.94-1.42,1.83-1.65,2.93c-0.2,0.98,0.08,1.98,0.14,2.97c0.41,6.04-6.23,9.76-11.69,12.36
			c-5.46,2.6-11.64,7.73-9.56,13.41c2.31,6.3,12.08,5.06,16.93,0.42c4.85-4.64,7.84-11.39,13.82-14.44
			c8.05-4.11,17.94,0.18,26.76-1.74c2.27-0.49,4.6-1.4,6.84-0.79c3.5,0.95,5.03,5.1,5.27,8.72s-0.25,7.47,1.4,10.7
			c3.03,5.93,11.07,6.51,17.09,9.35c4.81,2.27,8.61,6.26,13.32,8.72s11.33,2.89,14.63-1.27c1.42-1.79,2.06-4.25,3.92-5.58
			c1.55-1.11,3.6-1.18,5.5-1.01c8.99,0.81,16.95,5.9,24.5,10.85c5.81,3.8,11.81,7.8,15.41,13.74c5.32,8.78,3.9,21.08-3.27,28.42
			c4.04,2.54,8.59,5.98,8.37,10.74c-0.1,2.13-1.2,4.11-2.63,5.7c-5.19,5.79-14.02,6.68-21.67,5.3c-7.65-1.38-14.91-4.59-22.62-5.55
			c-12.59-1.58-25.06,2.91-36.96,7.32c-9.28,3.44-18.65,6.93-26.94,12.33c-3.98,2.58-8.06,5.72-12.8,5.67
			c-8.95-0.09-13.58-11.01-13.55-19.96c-4.47-1.01-8.78,2.72-10.64,6.91c-1.86,4.19-2.14,8.92-3.64,13.25
			c-1.59,4.58-4.49,8.58-7.53,12.36c-2.39,2.98-4.62,3.54-8.42,4c-2.16,0.26-4.95,2.15-7.02,1.52c-9.86-3.04-19.72-6.07-29.59-9.11
			c-6.61-2.04-14.32-3.92-20,0.01c-3.7,2.56-5.86,7.26-10.08,8.82c-4.41,1.63-9.48-1-12.17-4.86s-3.54-8.66-4.33-13.3
			c1.18-1.88,4.13-1.35,5.92-0.04c1.79,1.31,3.31,3.22,5.49,3.64c4.03,0.78,7.07-4.43,5.95-8.38c-1.12-3.95-4.64-6.65-7.88-9.18
			c-3.23-2.53-6.6-5.56-7.15-9.63c-3.44,2.2-6.89,4.41-10.33,6.61c-7.02-0.33-12.55-8.32-10.37-15.01c-2.17-2-5.71-0.08-7.53,2.25
			c-1.82,2.33-3.47,5.32-6.38,5.81c-2,0.33-3.95-0.67-5.93-1.05c-8.72-1.68-19.13,8.01-25.41,1.73c-3.01,1.06-4.52,5.08-2.95,7.86
			c-2.39,1.6-5.41,3.16-8.01,1.93c-3.2-1.51-3.35-5.89-4.64-9.19c-1.29-3.3-7.06-5.16-7.64-1.67c-1-3.38-2.01-6.76-3.01-10.14
			c-8.12,5.75-9.39,19.01-2.5,26.18c1.73,1.8,4.05,3.76,3.59,6.22c-0.6,3.24-5.4,3.51-8.2,1.77c-2.8-1.74-4.98-4.66-8.19-5.42
			c-2.13-0.51-4.58-0.02-6.39-1.27c-2.45-1.7-2.13-5.41-1.15-8.23c3.77-10.87,13.27-20.32,12.27-31.78
			c-0.4-4.61-2.55-8.97-2.67-13.6c-0.12-4.63,3.11-10,7.72-9.52c6.89,0.73,7.94,12.73,14.84,13.37c2.82-2.18,0.64-6.53-0.64-9.86
			C119.23,129.14,120.88,119.85,124.92,115.62"/>
	</g>
	<g>
		<path class="map-path-0" d="M447.18,77.42c-1.9,3.67-3.81,7.33-5.71,11c-0.62,1.19-1.26,2.5-1.04,3.83c0.2,1.17,1.02,2.11,1.84,2.97
			c1.55,1.62,3.19,3.16,4.9,4.6c0.21,0.17,0.43,0.35,0.7,0.38c0.32,0.03,0.62-0.16,0.88-0.36c2.79-2.15,4.1-5.66,5.28-8.98
			c0.21-0.58,0.42-1.2,0.3-1.81c-0.28-1.51-2.38-2.26-2.43-3.8c-0.03-0.83,0.57-1.52,0.88-2.29c0.59-1.48,0.01-3.26-1.16-4.34
			c-1.17-1.08-2.83-1.52-4.42-1.49"/>
	</g>
	<g>
		<path class="map-path-0" d="M460.1,79.97c2.18,3.28,2.22,7.85,0.1,11.17c-1.14,1.78-2.89,3.38-2.98,5.49c-0.12,2.94,3.05,4.91,5.92,5.56
			c2.87,0.65,6.08,0.74,8.3,2.67c4.08,3.56,2.62,11.43,7.37,14.02c3.4,1.85,7.62-0.5,10.18-3.4c2.56-2.9,4.53-6.54,7.96-8.33
			c1.1-0.57,2.33-0.95,3.21-1.81c2.9-2.86-0.16-8.17,1.8-11.74c1.05-1.9,3.38-2.98,3.97-5.06c0.67-2.37-1.24-4.61-2.99-6.34
			c-1.89-1.85-3.77-3.71-5.66-5.56c-2.78-2.74-6.17-5.69-10.04-5.15c-1.6,0.22-3.07,1.04-4.67,1.29c-1.51,0.24-3.04-0.04-4.55-0.18
			c-6.53-0.58-13.26,1.65-18.15,6.01"/>
	</g>
	<g>
		<path class="map-path-0" d="M378.58,74.06c-2.15,1.04-4.52,1.63-6.91,1.71c-2.92,0.1-5.93-0.54-8.72,0.3c-2.8,0.84-5.2,4.1-3.74,6.64
			c1.69,2.93,6.05,1.87,9.39,2.33c4.38,0.6,7.58,4.24,10.8,7.27c3.22,3.03,7.73,5.78,11.83,4.12c1.44-0.58,2.63-1.66,4.07-2.22
			c4.99-1.94,11.07,2.72,15.73,0.08c1.39-0.78,2.43-2.15,3.93-2.69c2.76-1,5.89,1.14,8.7,0.28c3.21-0.98,4.08-5.03,4.38-8.37
			c0.22-2.45,0.18-5.42-1.92-6.7c-2.42-1.47-5.36,0.52-7.92,1.76c-3.32,1.61-7.23,1.93-10.77,0.9c-1.01-0.3-2.06-0.7-3.08-0.42
			c-1.92,0.53-2.59,3.18-4.48,3.8c-2.74,0.9-4.79-3-7.65-3.38c-0.92-0.12-1.86,0.13-2.77-0.07c-1.12-0.25-1.95-1.15-2.8-1.92
			c-1.91-1.71-4.27-2.92-6.78-3.47"/>
	</g>
	<g>
		<path class="map-path-0" d="M264.7,228.18c1.33,1.27,2.65,2.55,3.98,3.82c0.51,0.49,1.03,0.99,1.61,1.38c1.18,0.79,2.63,1.15,4.04,1
			c0.21-0.02,0.44-0.06,0.64,0.01c0.16,0.05,0.29,0.17,0.42,0.28c0.69,0.6,1.43,1.27,1.62,2.17c0.09,0.4,0.05,0.84,0.21,1.22
			c0.15,0.37,0.46,0.65,0.76,0.92c0.86,0.76,1.72,1.53,2.57,2.29c0.13,0.12,0.28,0.25,0.46,0.25c0.22,0.01,0.4-0.16,0.59-0.27
			c0.67-0.38,1.55-0.03,2.06,0.55c0.51,0.57,0.78,1.32,1.17,1.98c0.39,0.66,1,1.29,1.77,1.33c0.77,0.05,1.43-0.49,2.05-0.95
			c0.62-0.46,1.42-0.87,2.13-0.57c0.22-0.63-0.25-1.26-0.58-1.83c-0.39-0.69-0.62-1.49-0.52-2.27c0.1-0.78,0.57-1.54,1.29-1.87
			c0.14-0.07,0.31-0.12,0.46-0.06c0.13,0.05,0.22,0.18,0.28,0.31c0.39,0.83,0.14,2.04,0.92,2.52c0.76,0.47,1.69-0.23,2.3-0.88
			c0.99-1.05,1.98-2.1,2.96-3.14c0.51-0.54,1.06-1.18,1.02-1.93c-0.02-0.38-0.2-0.73-0.44-1.03c-0.75-0.94-2.07-1.33-3.26-1.11
			c-1.19,0.22-2.23,0.97-2.99,1.9c-0.48,0.03-0.59-0.67-0.94-0.99c-0.23-0.21-0.57-0.25-0.88-0.29c-0.94-0.09-1.91-0.18-2.82,0.07
			c-0.59,0.16-1.14,0.47-1.75,0.55c-0.53,0.07-1.07-0.05-1.58-0.2c-1.03-0.3-2.02-0.75-2.93-1.33c-0.63-0.4-1.24-0.88-1.97-1.07
			c-0.37-0.1-0.76-0.12-1.11-0.26c-0.42-0.17-0.76-0.49-1.06-0.84c-0.98-1.11-1.78-2.57-3.2-2.99c-1.04-0.31-2.14,0.02-3.2,0.25
			c-1.39,0.3-2.81,0.42-4.23,0.36c-0.74-0.03-1.62-0.04-2.03,0.58"/>
	</g>
	<g>
		<path class="map-path-0" d="M141.36,218.34c2.86,1.75,4.76,4.78,5.73,7.99c0.97,3.21,1.09,6.61,1.04,9.96c-0.01,0.37-0.02,0.76-0.22,1.07
			c-0.27,0.41-0.8,0.56-1.26,0.74c-2.67,1.1-3.69,4.29-5.65,6.41c-1.3,1.4-3.07,2.34-4.95,2.64c-0.36,0.06-0.75,0.08-1.06-0.12
			c-0.45-0.3-0.49-0.98-0.26-1.47c0.22-0.49,0.63-0.88,0.94-1.32c1.15-1.66,0.65-4.22-1.04-5.33c-0.66-0.43-1.43-0.65-2.07-1.1
			c-1.25-0.89-1.75-2.47-2.16-3.95c-0.08-0.3-0.17-0.62-0.1-0.93c0.09-0.41,0.43-0.7,0.68-1.03c0.79-1.02,0.84-2.45,0.45-3.68
			c-0.39-1.22-1.16-2.28-1.92-3.32c-0.26-0.35-0.55-0.73-0.98-0.82c-0.41-0.09-0.85,0.11-1.26,0.01c-0.53-0.14-0.8-0.72-0.99-1.24
			c-1.15-3.06-2.31-6.12-3.46-9.18c-0.36-0.96-0.73-2.02-0.38-2.99c0.21-0.58,0.65-1.05,1.12-1.46c3.51-3.05,8.64-3.42,12.55-5.94
			c2.76-1.78,4.78-4.55,7.62-6.2c1.73-1.01,3.69-1.56,5.63-2.09c1.72-0.48,3.93-0.8,4.97,0.66c0.82,1.15,0.34,2.83-0.65,3.84
			c-0.98,1.01-2.34,1.54-3.6,2.18c-1.76,0.89-3.39,2.04-4.83,3.39c-0.32,0.3-0.64,0.63-0.74,1.05c-0.09,0.37,0,0.76,0.15,1.11
			c0.82,1.89,3.75,2.4,5.16,0.88c0.4-0.43,0.72-0.99,1.28-1.14c0.37-0.1,0.76,0.01,1.14-0.01c1.07-0.05,1.82-1.06,2.3-2.02
			c0.56-1.11,1.33-2.5,2.56-2.35c1.08,0.13,1.59,1.36,2.09,2.32s1.75,1.9,2.57,1.18c0.42-0.36,0.48-0.98,0.48-1.53
			c0-3.35-1.14-6.69-3.18-9.34c3.12-2.18,7.47-2.46,10.83-0.68c1.01,0.53,1.94,1.24,3.03,1.58c1.18,0.37,2.48,0.3,3.66,0.68
			c3.22,1.04,4.45,4.89,6.91,7.22c1.58,1.5,3.8,2.49,4.66,4.5c0.17,0.41,0.28,0.87,0.17,1.31c-0.1,0.39-0.37,0.72-0.65,1.01
			c-1.59,1.58-3.98,2.16-6.22,1.98c-2.24-0.19-4.36-1.05-6.38-2.04c-1.59-0.77-3.42-1.63-5.04-0.92c0.24,1.98,2.37,3.11,4.3,3.63
			c1.93,0.52,4.1,0.86,5.35,2.41c0.17,0.21,0.33,0.46,0.3,0.73c-0.03,0.3-0.27,0.53-0.49,0.73c-1.38,1.2-3.06,2.22-4.89,2.22
			c-1.89,0-3.6-1.09-5.07-2.28c-1.47-1.19-2.85-2.56-4.59-3.29c-1.74-0.73-4.01-0.66-5.25,0.77c1.94,1.64,3.88,3.28,5.81,4.92
			c0.26,0.22,0.53,0.46,0.57,0.79c0.04,0.31-0.13,0.6-0.3,0.87c-1.83,2.81-4.55,5.03-7.67,6.27c-0.58,0.23-1.22,0.43-1.83,0.27
			c-0.59-0.15-1.05-0.61-1.39-1.12c-1.41-2.12-1.07-5.08-2.53-7.17c-0.54-0.77-1.29-1.36-2.03-1.94c-1.01-0.8-2.02-1.59-3.03-2.39
			c-0.45-0.35-0.91-0.71-1.46-0.88c-1.02-0.31-2.16,0.16-2.93,0.9c-0.77,0.74-1.25,1.73-1.72,2.69"/>
	</g>
	<path class="map-path-0" d="M294.53,224.07c-0.79-0.86-1.56-1.98-2.55-2.61c-1.12-0.71-2.69-0.56-3.9-0.19c-0.54,0.16-1.09,0.56-1.61,0.66
		c-0.2,0.04-0.47-0.04-0.69-0.04c-0.36,0-0.74,0.06-1.09,0.18c-1.29,0.45-2.52,1.21-3.74,1.82c-0.51,0.25-0.75,0.82-0.73,1.38
		c-0.01,0.05-0.01,0.1-0.01,0.15c0,0.01,0,0.02,0,0.03c0,0.35,0.12,0.71,0.42,1.03c1.63,1.73,3.85,2.48,6.19,2.39
		c0.49-0.02,0.92-0.01,1.4,0.12c0.58,0.16,1.13,0.39,1.71,0.52c1.1,0.25,2.27,0.24,3.35-0.09c1.04-0.32,2.41-0.97,2.9-2.01
		C296.81,226.05,295.33,224.94,294.53,224.07z"/>
	<path class="map-path-0" d="M228.41,263.38c-1.46-0.22-2.69,0.35-4.05,0.77c-1.22,0.37-2.22,0.02-3.17-0.8c-1.09-0.94-1.89-2.15-2.81-3.24
		c-1.04-1.24-2.22-2.21-3.73-2.81c-0.78-0.31-1.7,0.34-1.91,1.08c-0.05,0.18-0.06,0.35-0.05,0.52c-0.1,0.14-0.17,0.3-0.2,0.47
		c-0.36,2.5-0.8,5.01-1.07,7.53c-0.13,1.18-0.1,2.41,0.3,3.54c0.34,0.96,1.01,1.81,1.25,2.8c0.25,1.02-0.05,2.06,0.5,3.04
		c0.52,0.93,1.51,1.46,2.54,1.56c0.99,0.1,1.93-0.2,2.73-0.79c0.5-0.37,0.89-0.8,1.27-1.3c0.07-0.09,0.13-0.19,0.19-0.29
		c0.27,0.21,0.53,0.42,0.8,0.63c0.56,0.43,1.13,0.81,1.78,1.07c1.37,0.56,2.82,0.44,4.15-0.17c2.75-1.28,3.81-4.26,4.3-7.05
		c0.23-1.3,0.5-2.67,0.13-3.96C230.98,264.57,229.83,263.59,228.41,263.38z"/>
	<path class="map-path-0" d="M194.16,262.64c-1.84-1.63-3.79-3.14-5.82-4.54c-0.18-0.2-0.42-0.36-0.74-0.44c-3.6-0.97-7.39,0.42-9.57,3.42
		c-0.45,0.61-0.81,1.29-1.28,1.89c-0.5,0.63-0.93,0.83-1.7,0.99c-1.94,0.39-3.04,2.29-1.98,4.11c1.07,1.83,3.72,1.98,5.6,2.03
		c2.14,0.06,4.17-0.56,6.29-0.65c2.05-0.09,3.62,1.2,5.6,1.43c2.12,0.24,3.68-1.04,4.9-2.63c0.7-0.92,1.24-1.84,0.88-3.03
		C196.02,264.12,194.98,263.36,194.16,262.64z"/>
	<g>
		<path class="map-path-0" d="M209.66,236.78c-0.75,0.32-1.31,1.06-1.42,1.86c-0.06,0.4-0.05,0.87-0.38,1.1c-0.25,0.17-0.58,0.12-0.88,0.06
			c-3.25-0.62-6.59-0.75-9.88-0.38c-0.62,0.07-1.29,0.18-1.74,0.62c-0.73,0.73-0.46,2.06,0.3,2.77c0.75,0.71,1.82,0.97,2.83,1.2
			c2.73,0.62,5.45,1.24,8.18,1.86c0.54,0.12,1.09,0.25,1.55,0.56c0.51,0.34,0.86,0.86,1.32,1.27c1.55,1.41,3.89,1.31,5.98,1.41
			c2.12,0.1,4.22,0.48,6.23,1.15c0.26,0.09,0.58,0.17,0.8,0c0.14-0.11,0.2-0.29,0.25-0.45c0.53-1.74,1.04-3.73,0.09-5.29
			c-0.42-0.69-1.07-1.19-1.71-1.68c-2.78-2.11-5.58-4.19-8.42-6.24c-0.39-0.28-0.79-0.56-1.26-0.66c-0.47-0.09-1.02,0.06-1.24,0.48"
			/>
	</g>
	<polygon class="map-path-0" points="475.23,107.95 472.67,108.45 475.23,107.95 	"/>
	<polygon class="map-path-0" points="475.32,107.93 475.23,107.95 475.29,108.02 	"/>
</g>
<path class="map-path-1" d="M22.97,202.07c0,0,130.99,38.4,221.65-29.09"/>
<linearGradient id="SVGID_1_" gradientUnits="userSpaceOnUse" x1="288.752" y1="191.0261" x2="475.7589" y2="191.0261">
	<stop  offset="0" style="stop-color:#91D2E2"/>
	<stop  offset="0.0336" style="stop-color:#89CCE1"/>
	<stop  offset="0.1954" style="stop-color:#6BB3DA"/>
	<stop  offset="0.3661" style="stop-color:#529FD3"/>
	<stop  offset="0.5476" style="stop-color:#3F92CE"/>
	<stop  offset="0.7473" style="stop-color:#318ACB"/>
	<stop  offset="1" style="stop-color:#2D88C9"/>
</linearGradient>
<path class="map-path-2" d="M474.76,192.87c0,0-105.6,48.4-185.01-20.26"/>
<path class="map-path-3" d="M79.37,119.17c0,0,84.19-48.66,150.46,21.48"/>
<path class="map-path-4" d="M218.96,19.18c0,0,42.82,35.3,41.77,99.1"/>
<linearGradient id="SVGID_2_" gradientUnits="userSpaceOnUse" x1="293.6387" y1="84.3506" x2="378.8283" y2="84.3506">
	<stop  offset="0" style="stop-color:#505DA8"/>
	<stop  offset="0.1337" style="stop-color:#4C58A1"/>
	<stop  offset="0.3696" style="stop-color:#414B8C"/>
	<stop  offset="0.6797" style="stop-color:#2F396D"/>
	<stop  offset="1" style="stop-color:#1B284F"/>
</linearGradient>
<path class="map-path-5" d="M377.83,48.57c0,0-61.61-1.71-83.19,71.56"/>
<linearGradient id="SVGID_3_" gradientUnits="userSpaceOnUse" x1="329.784" y1="122.4941" x2="507.7279" y2="122.4941">
	<stop  offset="0" style="stop-color:#EDF2C3"/>
	<stop  offset="0.0505" style="stop-color:#EEEDB8"/>
	<stop  offset="0.2094" style="stop-color:#EEDB97"/>
	<stop  offset="0.3772" style="stop-color:#FF7D00"/>
	<stop  offset="0.5555" style="stop-color:#FF7D00"/>
	<stop  offset="0.7517" style="stop-color:#FF7D00"/>
	<stop  offset="1" style="stop-color:#FF7D00"/>
</linearGradient>
<path class="map-path-6" d="M506.73,112.28c0,0-107.98-44.71-175.94,33.2"/>
<path class="map-path-7" d="M491.55,187.74c0.02-1.38-1.07-2.51-2.45-2.54c-1.26-0.02-2.32,0.9-2.51,2.12c-0.14-1.22-1.17-2.18-2.43-2.2
	c-1.38-0.02-2.51,1.07-2.54,2.45c-0.01,0.74,0.3,1.4,0.79,1.87l0,0l4,4.13l0.07,0.08l0.08-0.07l4.13-4l0,0
	C491.2,189.13,491.53,188.48,491.55,187.74z"/>
<path class="map-path-8" d="M525.44,117.61c0.67-1.2,0.24-2.72-0.97-3.39c-1.1-0.61-2.47-0.3-3.21,0.68c0.45-1.14-0.01-2.47-1.11-3.09
	c-1.2-0.67-2.72-0.24-3.39,0.97c-0.36,0.64-0.4,1.38-0.18,2.02l0,0l1.58,5.53l0.03,0.1l0.1-0.03l5.53-1.58l0,0
	C524.48,118.68,525.08,118.26,525.44,117.61z"/>
<path class="map-path-9" d="M394.91,47.46c0.17-1.37-0.79-2.62-2.16-2.79c-1.25-0.16-2.41,0.64-2.72,1.83c-0.01-1.23-0.93-2.29-2.18-2.45
	c-1.37-0.17-2.62,0.79-2.79,2.16c-0.09,0.73,0.14,1.43,0.58,1.94l0,0l3.52,4.55l0.06,0.08l0.08-0.06l4.55-3.52l0,0
	C394.42,48.81,394.82,48.19,394.91,47.46z"/>
<path class="map-path-10" d="M215.36,7.66c-0.79-1.13-2.35-1.4-3.48-0.61c-1.03,0.73-1.35,2.09-0.78,3.19c-0.84-0.9-2.23-1.07-3.26-0.34
	c-1.13,0.79-1.4,2.35-0.61,3.48c0.42,0.6,1.06,0.96,1.74,1.04l0,0l5.67,0.99l0.1,0.02l0.02-0.1l0.99-5.67l0,0
	C215.9,8.98,215.78,8.26,215.36,7.66z"/>
<path class="map-path-11" d="M71.99,119.28c-0.92-1.02-2.5-1.1-3.52-0.18c-0.94,0.85-1.08,2.24-0.39,3.26c-0.94-0.79-2.34-0.79-3.28,0.06
	c-1.02,0.92-1.1,2.5-0.18,3.52c0.49,0.55,1.17,0.82,1.86,0.82l0,0l5.74,0.29l0.1,0.01l0.01-0.1l0.29-5.74l0,0
	C72.69,120.53,72.49,119.83,71.99,119.28z"/>
<path class="map-path-12" d="M15.91,197.52c-0.23-1.36-1.52-2.27-2.88-2.04c-1.24,0.21-2.11,1.32-2.07,2.54c-0.37-1.17-1.56-1.92-2.8-1.71
	c-1.36,0.23-2.27,1.52-2.04,2.88c0.12,0.73,0.55,1.32,1.13,1.69l0,0l4.7,3.32l0.09,0.06l0.06-0.09l3.32-4.7l0,0
	C15.83,198.95,16.03,198.25,15.91,197.52z"/>
</svg>
