<?xml version="1.0" encoding="utf-8"?>
<!-- Generator: Adobe Illustrator 24.0.0, SVG Export Plug-In . SVG Version: 6.00 Build 0)  -->
<svg version="1.1" xmlns="http://www.w3.org/2000/svg" xmlns:xlink="http://www.w3.org/1999/xlink" x="0px"
	 y="0px" width="100%" height="100%" viewBox="0 0 421.6 232.6" enable-background="new 0 0 421.6 232.6" xml:space="preserve">
<g>
	<g>
		<path fill="#E06A96" d="M103.3,96.4c2.6,2.1,5.3,4.1,7.9,6.2c0.6,0.4,1.1,0.9,1.8,1c2.5,0.4,3.4-3.6,1.8-5.5
			c-1.6-1.9-4.3-2.6-6.3-4.2c-4.7-3.8-3.9-11-2.7-16.9c0.3-1.7,0.8-3.6,2.1-4.8c1.6-1.4,4-1.5,5.8-2.7c2.2-1.5,2.8-4.5,3.7-7
			c0.9-2.6,2.8-5.3,5.5-5.1c2.7,0.2,4.4,3.4,7.1,3.9c3.5,0.6,5.8-3.2,7.7-6.2c3.1-4.8,8.6-8.8,14.2-7.7c5,1,8.9,5.9,13.9,5.7
			c4.7-0.2,8.1-4.7,12.7-5.8c2.9-0.7,6.1,0,9-0.8c2.2-0.6,4-2,5.9-3.3c3.6-2.5,7.5-4.6,11.6-6.2c1.8-0.7,3.8-1.4,5.6-0.8
			c1.4,0.4,2.4,1.4,3.7,2.1c3.6,1.8,7.9,0.2,11.9-0.4c5.1-0.9,10.7-0.1,14.6,3.2c3.9,3.3,5.5,9.6,2.6,13.9c-0.5,0.7-1.1,1.4-1.3,2.3
			c-0.2,0.8,0.1,1.5,0.1,2.3c0.3,4.7-4.8,7.6-9.1,9.6c-4.2,2-9,6-7.4,10.4c1.8,4.9,9.4,3.9,13.2,0.3c3.8-3.6,6.1-8.9,10.7-11.2
			c6.3-3.2,13.9,0.1,20.8-1.4c1.8-0.4,3.6-1.1,5.3-0.6c2.7,0.7,3.9,4,4.1,6.8c0.2,2.8-0.2,5.8,1.1,8.3c2.4,4.6,8.6,5.1,13.3,7.3
			c3.7,1.8,6.7,4.9,10.4,6.8s8.8,2.2,11.4-1c1.1-1.4,1.6-3.3,3-4.3c1.2-0.9,2.8-0.9,4.3-0.8c7,0.6,13.2,4.6,19,8.4
			c4.5,3,9.2,6.1,12,10.7c4.1,6.8,3,16.4-2.5,22.1c3.1,2,6.7,4.6,6.5,8.4c-0.1,1.7-0.9,3.2-2,4.4c-4,4.5-10.9,5.2-16.8,4.1
			c-5.9-1.1-11.6-3.6-17.6-4.3c-9.8-1.2-19.5,2.3-28.7,5.7c-7.2,2.7-14.5,5.4-20.9,9.6c-3.1,2-6.3,4.4-10,4.4
			c-7-0.1-10.6-8.6-10.5-15.5c-3.5-0.8-6.8,2.1-8.3,5.4c-1.4,3.3-1.7,6.9-2.8,10.3c-1.2,3.6-3.5,6.7-5.9,9.6
			c-1.9,2.3-3.6,2.8-6.5,3.1c-1.7,0.2-3.8,1.7-5.5,1.2c-7.7-2.4-15.3-4.7-23-7.1c-5.1-1.6-11.1-3-15.5,0c-2.9,2-4.6,5.6-7.8,6.9
			c-3.4,1.3-7.4-0.8-9.5-3.8c-2.1-3-2.8-6.7-3.4-10.3c0.9-1.5,3.2-1,4.6,0s2.6,2.5,4.3,2.8c3.1,0.6,5.5-3.4,4.6-6.5
			c-0.9-3.1-3.6-5.2-6.1-7.1c-2.5-2-5.1-4.3-5.6-7.5c-2.7,1.7-5.4,3.4-8,5.1c-5.5-0.3-9.8-6.5-8.1-11.7c-1.7-1.6-4.4-0.1-5.9,1.7
			c-1.4,1.8-2.7,4.1-5,4.5c-1.6,0.3-3.1-0.5-4.6-0.8c-6.8-1.3-14.9,6.2-19.8,1.3c-2.3,0.8-3.5,3.9-2.3,6.1c-1.9,1.2-4.2,2.5-6.2,1.5
			c-2.5-1.2-2.6-4.6-3.6-7.1s-5.5-4-5.9-1.3c-0.8-2.6-1.6-5.3-2.3-7.9c-6.3,4.5-7.3,14.8-1.9,20.4c1.3,1.4,3.1,2.9,2.8,4.8
			c-0.5,2.5-4.2,2.7-6.4,1.4c-2.2-1.4-3.9-3.6-6.4-4.2c-1.7-0.4-3.6,0-5-1c-1.9-1.3-1.7-4.2-0.9-6.4c2.9-8.5,10.3-15.8,9.5-24.7
			c-0.3-3.6-2-7-2.1-10.6s2.4-7.8,6-7.4c5.4,0.6,6.2,9.9,11.5,10.4c2.2-1.7,0.5-5.1-0.5-7.7C98.8,106.9,100.1,99.7,103.3,96.4"/>
	</g>
	<g>
		<path fill="#E06A96" d="M353.8,66.7c-1.5,2.9-3,5.7-4.4,8.6c-0.5,0.9-1,1.9-0.8,3c0.2,0.9,0.8,1.6,1.4,2.3
			c1.2,1.3,2.5,2.5,3.8,3.6c0.2,0.1,0.3,0.3,0.5,0.3c0.2,0,0.5-0.1,0.7-0.3c2.2-1.7,3.2-4.4,4.1-7c0.2-0.5,0.3-0.9,0.2-1.4
			c-0.2-1.2-1.9-1.8-1.9-3c0-0.6,0.4-1.2,0.7-1.8c0.5-1.2,0-2.5-0.9-3.4c-0.9-0.8-2.2-1.2-3.4-1.2"/>
	</g>
	<g>
		<path fill="#E06A96" d="M363.8,68.7c1.7,2.6,1.7,6.1,0.1,8.7c-0.9,1.4-2.2,2.6-2.3,4.3c-0.1,2.3,2.4,3.8,4.6,4.3
			c2.2,0.5,4.7,0.6,6.5,2.1c3.2,2.8,2,8.9,5.7,10.9c2.6,1.4,5.9-0.4,7.9-2.6c2-2.3,3.5-5.1,6.2-6.5c0.9-0.4,1.8-0.7,2.5-1.4
			c2.3-2.2-0.1-6.4,1.4-9.1c0.8-1.5,2.6-2.3,3.1-3.9c0.5-1.8-1-3.6-2.3-4.9c-1.5-1.4-2.9-2.9-4.4-4.3c-2.2-2.1-4.8-4.4-7.8-4
			c-1.2,0.2-2.4,0.8-3.6,1c-1.2,0.2-2.4,0-3.5-0.1c-5.1-0.5-10.3,1.3-14.1,4.7"/>
	</g>
	<g>
		<path fill="#E06A96" d="M300.5,64.1c-1.7,0.8-3.5,1.3-5.4,1.3c-2.3,0.1-4.6-0.4-6.8,0.2c-2.2,0.7-4,3.2-2.9,5.2
			c1.3,2.3,4.7,1.5,7.3,1.8c3.4,0.5,5.9,3.3,8.4,5.7c2.5,2.4,6,4.5,9.2,3.2c1.1-0.5,2-1.3,3.2-1.7c3.9-1.5,8.6,2.1,12.2,0.1
			c1.1-0.6,1.9-1.7,3.1-2.1c2.1-0.8,4.6,0.9,6.8,0.2c2.5-0.8,3.2-3.9,3.4-6.5c0.2-1.9,0.1-4.2-1.5-5.2c-1.9-1.1-4.2,0.4-6.2,1.4
			c-2.6,1.3-5.6,1.5-8.4,0.7c-0.8-0.2-1.6-0.5-2.4-0.3c-1.5,0.4-2,2.5-3.5,3c-2.1,0.7-3.7-2.3-5.9-2.6c-0.7-0.1-1.4,0.1-2.2-0.1
			c-0.9-0.2-1.5-0.9-2.2-1.5c-1.5-1.3-3.3-2.3-5.3-2.7"/>
	</g>
	<g>
		<path fill="#E06A96" d="M211.9,183.9c1,1,2.1,2,3.1,3c0.4,0.4,0.8,0.8,1.3,1.1c0.9,0.6,2,0.9,3.1,0.8c0.2,0,0.3,0,0.5,0
			c0.1,0,0.2,0.1,0.3,0.2c0.5,0.5,1.1,1,1.3,1.7c0.1,0.3,0,0.7,0.2,0.9c0.1,0.3,0.4,0.5,0.6,0.7c0.7,0.6,1.3,1.2,2,1.8
			c0.1,0.1,0.2,0.2,0.4,0.2c0.2,0,0.3-0.1,0.5-0.2c0.5-0.3,1.2,0,1.6,0.4c0.4,0.4,0.6,1,0.9,1.5c0.3,0.5,0.8,1,1.4,1
			c0.6,0,1.1-0.4,1.6-0.7s1.1-0.7,1.7-0.4c0.2-0.5-0.2-1-0.5-1.4c-0.3-0.5-0.5-1.2-0.4-1.8c0.1-0.6,0.4-1.2,1-1.5
			c0.1-0.1,0.2-0.1,0.4,0c0.1,0,0.2,0.1,0.2,0.2c0.3,0.6,0.1,1.6,0.7,2c0.6,0.4,1.3-0.2,1.8-0.7c0.8-0.8,1.5-1.6,2.3-2.4
			c0.4-0.4,0.8-0.9,0.8-1.5c0-0.3-0.2-0.6-0.3-0.8c-0.6-0.7-1.6-1-2.5-0.9c-0.9,0.2-1.7,0.8-2.3,1.5c-0.4,0-0.5-0.5-0.7-0.8
			c-0.2-0.2-0.4-0.2-0.7-0.2c-0.7-0.1-1.5-0.1-2.2,0.1c-0.5,0.1-0.9,0.4-1.4,0.4c-0.4,0.1-0.8,0-1.2-0.2c-0.8-0.2-1.6-0.6-2.3-1
			c-0.5-0.3-1-0.7-1.5-0.8c-0.3-0.1-0.6-0.1-0.9-0.2c-0.3-0.1-0.6-0.4-0.8-0.7c-0.8-0.9-1.4-2-2.5-2.3c-0.8-0.2-1.7,0-2.5,0.2
			c-1.1,0.2-2.2,0.3-3.3,0.3c-0.6,0-1.3,0-1.6,0.5"/>
	</g>
	<g>
		<path fill="#E06A96" d="M116,176.2c2.2,1.4,3.7,3.7,4.5,6.2s0.8,5.1,0.8,7.7c0,0.3,0,0.6-0.2,0.8c-0.2,0.3-0.6,0.4-1,0.6
			c-2.1,0.9-2.9,3.3-4.4,5c-1,1.1-2.4,1.8-3.8,2.1c-0.3,0-0.6,0.1-0.8-0.1c-0.3-0.2-0.4-0.8-0.2-1.1c0.2-0.4,0.5-0.7,0.7-1
			c0.9-1.3,0.5-3.3-0.8-4.1c-0.5-0.3-1.1-0.5-1.6-0.9c-1-0.7-1.4-1.9-1.7-3.1c-0.1-0.2-0.1-0.5-0.1-0.7c0.1-0.3,0.3-0.5,0.5-0.8
			c0.6-0.8,0.7-1.9,0.3-2.9c-0.3-0.9-0.9-1.8-1.5-2.6c-0.2-0.3-0.4-0.6-0.8-0.6c-0.3-0.1-0.7,0.1-1,0c-0.4-0.1-0.6-0.6-0.8-1
			c-0.9-2.4-1.8-4.8-2.7-7.1c-0.3-0.7-0.6-1.6-0.3-2.3c0.2-0.5,0.5-0.8,0.9-1.1c2.7-2.4,6.7-2.7,9.8-4.6c2.1-1.4,3.7-3.5,5.9-4.8
			c1.3-0.8,2.9-1.2,4.4-1.6c1.3-0.4,3.1-0.6,3.9,0.5c0.6,0.9,0.3,2.2-0.5,3c-0.8,0.8-1.8,1.2-2.8,1.7c-1.4,0.7-2.6,1.6-3.8,2.6
			c-0.2,0.2-0.5,0.5-0.6,0.8c-0.1,0.3,0,0.6,0.1,0.9c0.6,1.5,2.9,1.9,4,0.7c0.3-0.3,0.6-0.8,1-0.9c0.3-0.1,0.6,0,0.9,0
			c0.8,0,1.4-0.8,1.8-1.6c0.4-0.9,1-1.9,2-1.8c0.8,0.1,1.2,1.1,1.6,1.8c0.4,0.7,1.4,1.5,2,0.9c0.3-0.3,0.4-0.8,0.4-1.2
			c0-2.6-0.9-5.2-2.5-7.3c2.4-1.7,5.8-1.9,8.4-0.5c0.8,0.4,1.5,1,2.4,1.2c0.9,0.3,1.9,0.2,2.8,0.5c2.5,0.8,3.5,3.8,5.4,5.6
			c1.2,1.2,3,1.9,3.6,3.5c0.1,0.3,0.2,0.7,0.1,1c-0.1,0.3-0.3,0.6-0.5,0.8c-1.2,1.2-3.1,1.7-4.8,1.5c-1.7-0.1-3.4-0.8-5-1.6
			c-1.2-0.6-2.7-1.3-3.9-0.7c0.2,1.5,1.8,2.4,3.3,2.8c1.5,0.4,3.2,0.7,4.2,1.9c0.1,0.2,0.3,0.4,0.2,0.6c0,0.2-0.2,0.4-0.4,0.6
			c-1.1,0.9-2.4,1.7-3.8,1.7c-1.5,0-2.8-0.8-3.9-1.8s-2.2-2-3.6-2.6c-1.4-0.6-3.1-0.5-4.1,0.6c1.5,1.3,3,2.6,4.5,3.8
			c0.2,0.2,0.4,0.4,0.4,0.6c0,0.2-0.1,0.5-0.2,0.7c-1.4,2.2-3.5,3.9-6,4.9c-0.5,0.2-0.9,0.3-1.4,0.2c-0.5-0.1-0.8-0.5-1.1-0.9
			c-1.1-1.6-0.8-3.9-2-5.6c-0.4-0.6-1-1.1-1.6-1.5c-0.8-0.6-1.6-1.2-2.4-1.9c-0.3-0.3-0.7-0.6-1.1-0.7c-0.8-0.2-1.7,0.1-2.3,0.7
			c-0.6,0.6-1,1.3-1.3,2.1"/>
	</g>
	<path fill="#E06A96" d="M235.1,180.7c-0.6-0.7-1.2-1.5-2-2c-0.9-0.6-2.1-0.4-3-0.1c-0.4,0.1-0.8,0.4-1.3,0.5c-0.2,0-0.4,0-0.5,0
		c-0.3,0-0.6,0-0.8,0.1c-1,0.3-2,0.9-2.9,1.4c-0.4,0.2-0.6,0.6-0.6,1.1c0,0,0,0.1,0,0.1c0,0,0,0,0,0c0,0.3,0.1,0.6,0.3,0.8
		c1.3,1.3,3,1.9,4.8,1.9c0.4,0,0.7,0,1.1,0.1c0.5,0.1,0.9,0.3,1.3,0.4c0.9,0.2,1.8,0.2,2.6-0.1c0.8-0.2,1.9-0.8,2.3-1.6
		C236.9,182.2,235.7,181.4,235.1,180.7z"/>
	<path fill="#E06A96" d="M183.7,211.3c-1.1-0.2-2.1,0.3-3.1,0.6c-0.9,0.3-1.7,0-2.5-0.6c-0.8-0.7-1.5-1.7-2.2-2.5
		c-0.8-1-1.7-1.7-2.9-2.2c-0.6-0.2-1.3,0.3-1.5,0.8c0,0.1,0,0.3,0,0.4c-0.1,0.1-0.1,0.2-0.2,0.4c-0.3,1.9-0.6,3.9-0.8,5.9
		c-0.1,0.9-0.1,1.9,0.2,2.8c0.3,0.7,0.8,1.4,1,2.2c0.2,0.8,0,1.6,0.4,2.4c0.4,0.7,1.2,1.1,2,1.2c0.8,0.1,1.5-0.2,2.1-0.6
		c0.4-0.3,0.7-0.6,1-1c0.1-0.1,0.1-0.1,0.1-0.2c0.2,0.2,0.4,0.3,0.6,0.5c0.4,0.3,0.9,0.6,1.4,0.8c1.1,0.4,2.2,0.3,3.2-0.1
		c2.1-1,3-3.3,3.3-5.5c0.2-1,0.4-2.1,0.1-3.1C185.7,212.2,184.8,211.4,183.7,211.3z"/>
	<path fill="#E06A96" d="M157.1,210.7c-1.4-1.3-2.9-2.4-4.5-3.5c-0.1-0.2-0.3-0.3-0.6-0.3c-2.8-0.8-5.7,0.3-7.4,2.7
		c-0.3,0.5-0.6,1-1,1.5c-0.4,0.5-0.7,0.6-1.3,0.8c-1.5,0.3-2.4,1.8-1.5,3.2c0.8,1.4,2.9,1.5,4.4,1.6c1.7,0,3.2-0.4,4.9-0.5
		c1.6-0.1,2.8,0.9,4.4,1.1c1.6,0.2,2.9-0.8,3.8-2c0.5-0.7,1-1.4,0.7-2.4C158.5,211.8,157.7,211.2,157.1,210.7z"/>
	<g>
		<path fill="#E06A96" d="M169.1,190.6c-0.6,0.2-1,0.8-1.1,1.4c0,0.3,0,0.7-0.3,0.9c-0.2,0.1-0.5,0.1-0.7,0
			c-2.5-0.5-5.1-0.6-7.7-0.3c-0.5,0.1-1,0.1-1.4,0.5c-0.6,0.6-0.4,1.6,0.2,2.2c0.6,0.6,1.4,0.8,2.2,0.9c2.1,0.5,4.2,1,6.4,1.4
			c0.4,0.1,0.8,0.2,1.2,0.4c0.4,0.3,0.7,0.7,1,1c1.2,1.1,3,1,4.6,1.1c1.6,0.1,3.3,0.4,4.8,0.9c0.2,0.1,0.5,0.1,0.6,0
			c0.1-0.1,0.2-0.2,0.2-0.3c0.4-1.4,0.8-2.9,0.1-4.1c-0.3-0.5-0.8-0.9-1.3-1.3c-2.2-1.6-4.3-3.3-6.5-4.9c-0.3-0.2-0.6-0.4-1-0.5
			c-0.4-0.1-0.8,0-1,0.4"/>
	</g>
	<path fill="#E06A96" d="M375.6,90.4l-2,0.4L375.6,90.4z"/>
	<polygon fill="#E06A96" points="375.7,90.4 375.6,90.4 375.7,90.5 	"/>
</g>
<path fill="none" stroke="#C1322E" stroke-linecap="round" stroke-linejoin="round" stroke-miterlimit="10" stroke-dasharray="1,8" d="
	M24,163.6c0,0,101.8,29.9,172.3-22.6"/>
<path fill="none" stroke="#6599CC" stroke-linecap="round" stroke-linejoin="round" stroke-miterlimit="10" stroke-dasharray="1,8" d="
	M373,174c0,0-84.5,31.9-142.4-25.6"/>
<path fill="none" stroke="#D9B5D2" stroke-linecap="round" stroke-linejoin="round" stroke-miterlimit="10" stroke-dasharray="1,8" d="
	M67.8,99.1c0,0,65.5-37.8,117,16.7"/>
<path fill="none" stroke="#20933E" stroke-linecap="round" stroke-linejoin="round" stroke-miterlimit="10" stroke-dasharray="1,5" d="
	M176.4,21.4c0,0,33.3,27.4,32.5,77"/>
<linearGradient id="SVGID_1_" gradientUnits="userSpaceOnUse" x1="234.7025" y1="165.1353" x2="300.3801" y2="165.1353" gradientTransform="matrix(1 0 0 -1 0 237.2016)">
	<stop  offset="0" style="stop-color:#505DA8"/>
	<stop  offset="0.1337" style="stop-color:#4C58A1"/>
	<stop  offset="0.3696" style="stop-color:#414B8C"/>
	<stop  offset="0.6797" style="stop-color:#2F396D"/>
	<stop  offset="1" style="stop-color:#1B284F"/>
</linearGradient>
<path fill="none" stroke="url(#SVGID_1_)" stroke-linecap="round" stroke-linejoin="round" stroke-miterlimit="10" stroke-dasharray="1,8" d="
	M299.9,44.2c0,0-47.9-1.3-64.7,55.6"/>
<linearGradient id="SVGID_2_" gradientUnits="userSpaceOnUse" x1="260.9031" y1="118.2655" x2="398.691" y2="118.2655" gradientTransform="matrix(0.9939 0.1107 0.1107 -0.9939 -12.2259 199.1086)">
	<stop  offset="0" style="stop-color:#EDF2C3"/>
	<stop  offset="5.050000e-02" style="stop-color:#EEEDB8"/>
	<stop  offset="0.2094" style="stop-color:#EEDB97"/>
	<stop  offset="0.3772" style="stop-color:#EECE7E"/>
	<stop  offset="0.5555" style="stop-color:#EDC36C"/>
	<stop  offset="0.7517" style="stop-color:#EDBD61"/>
	<stop  offset="1" style="stop-color:#EDBB5E"/>
</linearGradient>
<path fill="none" stroke="url(#SVGID_2_)" stroke-linecap="round" stroke-linejoin="round" stroke-miterlimit="10" stroke-dasharray="1,8" d="
	M397.5,117.8c0,0-79.6-43.8-138.8,10.5"/>
<path fill="#20933E" d="M173.9,13.9c-0.6-0.6-1.5-0.7-2.1-0.1c-0.6,0.5-0.7,1.3-0.2,2c-0.6-0.5-1.4-0.5-2,0
	c-0.6,0.6-0.7,1.5-0.1,2.1c0.3,0.3,0.7,0.5,1.1,0.5l0,0l3.5,0.2l0.1,0l0-0.1l0.2-3.5l0,0C174.4,14.7,174.2,14.2,173.9,13.9z"/>
<path fill="#D9B5D2" d="M62.5,99.1c-0.6-0.6-1.5-0.7-2.1-0.1c-0.6,0.5-0.7,1.3-0.2,2c-0.6-0.5-1.4-0.5-2,0c-0.6,0.6-0.7,1.5-0.1,2.1
	c0.3,0.3,0.7,0.5,1.1,0.5l0,0l3.5,0.2l0.1,0l0-0.1l0.2-3.5l0,0C62.9,99.8,62.8,99.4,62.5,99.1z"/>
<path fill="#C1322E" d="M19.4,161.8c0.2-0.8-0.4-1.6-1.2-1.7c-0.7-0.1-1.5,0.3-1.7,1c0-0.7-0.5-1.4-1.2-1.5
	c-0.8-0.2-1.6,0.4-1.7,1.2c-0.1,0.4,0,0.9,0.3,1.2l0,0l2,2.8l0,0.1l0.1,0l2.8-2l0,0C19.1,162.6,19.3,162.3,19.4,161.8z"/>
<path fill="#EDBB5E" d="M408.6,123.4c0.5-0.7,0.3-1.6-0.4-2.1c-0.6-0.4-1.5-0.3-2,0.3c0.3-0.7,0.1-1.5-0.5-1.9
	c-0.7-0.5-1.6-0.3-2.1,0.4c-0.2,0.4-0.3,0.8-0.2,1.2l0,0l0.7,3.4l0,0.1l0.1,0l3.4-0.7l0,0C408,124,408.3,123.8,408.6,123.4z"/>
<path fill="#6599CC" d="M384.1,168.8c-0.2-0.8-1.1-1.2-1.9-1c-0.7,0.2-1.2,1-1,1.7c-0.3-0.7-1.1-1-1.8-0.8c-0.8,0.2-1.2,1.1-1,1.9
	c0.1,0.4,0.4,0.7,0.8,0.9l0,0l3.1,1.6l0.1,0l0-0.1l1.6-3.1l0,0C384.2,169.7,384.3,169.3,384.1,168.8z"/>
<path fill="#2F396D" d="M311.1,44.1c0.1-0.8-0.5-1.6-1.3-1.7c-0.8-0.1-1.5,0.4-1.7,1.1c0-0.7-0.5-1.4-1.3-1.5
	c-0.8-0.1-1.6,0.5-1.7,1.3c-0.1,0.4,0.1,0.9,0.3,1.2l0,0l2.1,2.8l0,0l0,0l2.8-2.1l0,0C310.8,44.9,311.1,44.5,311.1,44.1z"/>
</svg>
