<svg width="100" id="couplering-svg" height="100" xmlns="http://www.w3.org/2000/svg" x="0" y="0" viewBox="0 0 87.1 104.8" xml:space="preserve"><style></style><linearGradient id="COUPLE_1_" gradientUnits="userSpaceOnUse" x1="15.376" y1="7.7" x2="25.366" y2="7.7" gradientTransform="matrix(1 0 0 -1 0 51.465)"><stop offset="0" stop-color="#00cbc6"/><stop offset=".225" stop-color="#09cac6"/><stop offset=".598" stop-color="#23c6c6"/><stop offset="1" stop-color="#45c2c6"/></linearGradient><path fill="url(#COUPLE_1_)" d="M15.4 41.3l7.2 7.5 2.8-10-.1-.1-1.6.4z"/><linearGradient id="COUPLE_2_" gradientUnits="userSpaceOnUse" x1="44.545" y1="-26.572" x2="83.958" y2="-26.572" gradientTransform="matrix(1 0 0 -1 0 51.465)"><stop offset="0" stop-color="#00a2c6"/><stop offset=".512" stop-color="#64bac6"/><stop offset="1" stop-color="#45fdc6"/></linearGradient><path d="M74.3 55.5l-2.6 2.1c7.8 5.7 11.2 16.1 7.6 25.5-4.3 11.4-17 17.2-28.4 12.9-1.3-.5-2.6-1.1-3.8-1.9-.8.8-1.7 1.5-2.6 2.2 1.6 1.1 3.3 2 5.2 2.7 13.1 4.9 27.6-1.7 32.6-14.8 4-10.5.4-22.1-8-28.7z" fill="url(#COUPLE_2_)"/><linearGradient id="COUPLE_3_" gradientUnits="userSpaceOnUse" x1="33.423" y1="-20.731" x2="60.581" y2="-20.731" gradientTransform="matrix(1 0 0 -1 0 51.465)"><stop offset="0" stop-color="#00a2c6"/><stop offset=".512" stop-color="#64bac6"/><stop offset="1" stop-color="#45fdc6"/></linearGradient><path d="M38 67.6c1.2-3.3 3.1-6.1 5.5-8.3.8-.7 1.6-1.4 2.5-2 4.2-2.9 9.3-4.3 14.5-3.9l-.5-3.3c-6-.3-11.9 1.6-16.7 5.1-.9.7-1.7 1.4-2.5 2.2-2.5 2.5-4.5 5.5-5.8 9-3.8 10.1-.7 21.1 6.9 27.8.9-.6 1.8-1.3 2.6-2-6.9-5.8-9.8-15.6-6.5-24.6z" fill="url(#COUPLE_3_)"/><linearGradient id="COUPLE_4_" gradientUnits="userSpaceOnUse" x1="55.181" y1="11.679" x2="63.854" y2="-3.343" gradientTransform="matrix(1.0063 .0001 -.0001 -1.0079 7.938 53.987)"><stop offset="0" stop-color="#f4b294"/><stop offset=".216" stop-color="#f69394"/><stop offset=".533" stop-color="#f96093"/><stop offset=".719" stop-color="#f93f93"/><stop offset=".894" stop-color="#f92593"/><stop offset="1" stop-color="#f91c93"/></linearGradient><path d="M74.3 55.5l4.2-3.5-19.4-7.3.9 5.4.5 3.3c2 .2 4 .6 5.9 1.3 1.9.7 3.7 1.7 5.3 2.9l2.6-2.1z" fill="url(#COUPLE_4_)"/><path fill="#f95a93" d="M74.3 55.5l-2.6 2.1z"/><linearGradient id="COUPLE_5_" gradientUnits="userSpaceOnUse" x1="67.148" y1="8.23" x2="76.858" y2="8.23" gradientTransform="matrix(1 0 0 -1 0 51.465)"><stop offset="0" stop-color="#f4b294"/><stop offset=".336" stop-color="#f68993"/><stop offset=".708" stop-color="#f96093"/><stop offset=".722" stop-color="#f95e93"/><stop offset=".886" stop-color="#f94b93"/><stop offset="1" stop-color="#f94493"/></linearGradient><path fill="url(#COUPLE_5_)" d="M76.9 41.7l-9.8-3.6 1.7 10.3z"/><linearGradient id="COUPLE_6_" gradientUnits="userSpaceOnUse" x1="-2524.063" y1="595.284" x2="-2532.932" y2="600.404" gradientTransform="matrix(-1 0 0 1 -2452.8 -551.124)"><stop offset=".032" stop-color="#f96093"/><stop offset=".071" stop-color="#f75c93"/><stop offset=".703" stop-color="#db1a93"/><stop offset="1" stop-color="#d00093"/></linearGradient><path fill="url(#COUPLE_6_)" d="M68.8 48.4l9.7 3.7-1.6-10.4z"/><linearGradient id="COUPLE_7_" gradientUnits="userSpaceOnUse" x1="-2521.609" y1="594.358" x2="-2511.894" y2="594.358" gradientTransform="matrix(-1 0 0 1 -2452.8 -551.124)"><stop offset=".032" stop-color="#f96093"/><stop offset=".638" stop-color="#de2d93"/><stop offset="1" stop-color="#d01393"/></linearGradient><path fill="url(#COUPLE_7_)" d="M59.1 44.7l9.7 3.7-1.7-10.3z"/><path d="M50.9 70.8c-1.2-4.7-3.8-8.6-7.3-11.5-2.4 2.2-4.3 5-5.5 8.3-3.4 9-.5 18.8 6.5 24.7 5.6-5.3 8.4-13.5 6.3-21.5z" fill="none"/><linearGradient id="COUPLE_8_" gradientUnits="userSpaceOnUse" x1="30.993" y1=".047" x2="41.94" y2="-6.273" gradientTransform="matrix(1 0 0 -1 0 51.465)"><stop offset="0" stop-color="#f48394"/><stop offset=".109" stop-color="#f57094"/><stop offset=".264" stop-color="#f75b93"/><stop offset=".44" stop-color="#f84d93"/><stop offset=".652" stop-color="#f94593"/><stop offset="1" stop-color="#f94293"/></linearGradient><path d="M43.4 55.2c-3.6-2.4-7.8-3.8-12.3-4l-.9 3.1c3.8.1 7.5 1.2 10.7 3.1.8-.8 1.6-1.5 2.5-2.2z" fill="url(#COUPLE_8_)"/><linearGradient id="COUPLE_9_" gradientUnits="userSpaceOnUse" x1="7.991" y1="-12.403" x2="51.286" y2="-37.4" gradientTransform="matrix(1 0 0 -1 0 51.465)"><stop offset="0" stop-color="#f48394"/><stop offset=".109" stop-color="#f57094"/><stop offset=".264" stop-color="#f75b93"/><stop offset=".44" stop-color="#f84d93"/><stop offset=".652" stop-color="#f94593"/><stop offset="1" stop-color="#f94293"/></linearGradient><path d="M54 70c-1.3-5.1-4.1-9.5-7.9-12.7-.9.6-1.7 1.3-2.5 2 3.5 2.8 6.1 6.8 7.3 11.5 2.1 8-.7 16.2-6.4 21.5-.8.7-1.6 1.4-2.6 2 .4.4.8.7 1.3 1.1-.4-.3-.9-.7-1.3-1.1-2 1.4-4.3 2.4-6.8 3-11.7 3-23.6-4-26.6-15.7-2.4-9.6 2.1-19.5 10.3-24.3L16.5 55c-9 5.6-13.8 16.6-11 27.4 3.4 13.4 17.1 21.4 30.5 18 3.2-.8 6.1-2.2 8.6-4.1.9-.7 1.8-1.4 2.6-2.2 6.2-6 9.1-15.1 6.8-24.1z" fill="url(#COUPLE_9_)"/><linearGradient id="COUPLE_10_" gradientUnits="userSpaceOnUse" x1="22.623" y1="7.7" x2="32.513" y2="7.7" gradientTransform="matrix(1 0 0 -1 0 51.465)"><stop offset="0" stop-color="#0087c6"/><stop offset="1" stop-color="#64d8c6"/></linearGradient><path fill="url(#COUPLE_10_)" d="M25.3 38.7l-2.7 10.1 9.8-2.5.1-.3z"/><linearGradient id="COUPLE_11_" gradientUnits="userSpaceOnUse" x1="26.939" y1=".818" x2="37.077" y2=".818" gradientTransform="matrix(.9894 -.0002 .0002 -.9861 -14 47.07)"><stop offset="0" stop-color="#0087c6"/><stop offset="1" stop-color="#64d8c6"/></linearGradient><path fill="url(#COUPLE_11_)" d="M15.4 41.3l-2.7 9.9 10-2.5-.3-.2z"/><linearGradient id="COUPLE_12_" gradientUnits="userSpaceOnUse" x1="31.861" y1="47.396" x2="35.34" y2="41.371" gradientTransform="matrix(1 0 0 -1 0 51.465)"><stop offset=".032" stop-color="#f96093"/><stop offset=".638" stop-color="#de2d93"/><stop offset="1" stop-color="#d01393"/></linearGradient><path d="M37.2 6.6c0-1.1-.9-1.9-1.9-1.9-1 0-1.8.7-1.9 1.7-.1-.9-.9-1.7-1.9-1.7-1.1 0-1.9.9-1.9 1.9 0 .6.2 1.1.6 1.4l3.2 3.2.1.1.1-.1L36.5 8c.4-.3.7-.8.7-1.4z" fill="url(#COUPLE_12_)"/><linearGradient id="COUPLE_13_" gradientUnits="userSpaceOnUse" x1="54.366" y1="41.364" x2="57.845" y2="47.39" gradientTransform="matrix(1 0 0 -1 0 51.465)"><stop offset="0" stop-color="#f96093"/><stop offset=".626" stop-color="#de2d93"/><stop offset="1" stop-color="#d01393"/></linearGradient><path d="M60.3 6.6c0-1.1-.9-1.9-1.9-1.9-1 0-1.8.7-1.9 1.7-.1-.9-.9-1.7-1.9-1.7-1.1 0-1.9.9-1.9 1.9 0 .6.2 1.1.6 1.4l3.2 3.2.1.1.1-.1L59.6 8c.4-.3.7-.8.7-1.4z" fill="url(#COUPLE_13_)"/><linearGradient id="COUPLE_14_" gradientUnits="userSpaceOnUse" x1="34.77" y1="27.665" x2="31.292" y2="21.64" gradientTransform="matrix(1 0 0 -1 0 51.465)"><stop offset=".032" stop-color="#f96093"/><stop offset=".638" stop-color="#de2d93"/><stop offset="1" stop-color="#d01393"/></linearGradient><path d="M37.2 26.3c0-1.1-.9-1.9-1.9-1.9-1 0-1.8.7-1.9 1.7-.1-.9-.9-1.7-1.9-1.7-1.1 0-1.9.9-1.9 1.9 0 .6.2 1.1.6 1.4l3.2 3.2.1.1.1-.1 3.2-3.2c.1-.3.4-.8.4-1.4z" fill="url(#COUPLE_14_)"/><linearGradient id="COUPLE_15_" gradientUnits="userSpaceOnUse" x1="58.416" y1="21.643" x2="54.937" y2="27.669" gradientTransform="matrix(1 0 0 -1 0 51.465)"><stop offset=".032" stop-color="#f96093"/><stop offset=".638" stop-color="#de2d93"/><stop offset="1" stop-color="#d01393"/></linearGradient><path d="M60.3 26.3c0-1.1-.9-1.9-1.9-1.9-1 0-1.8.7-1.9 1.7-.1-.9-.9-1.7-1.9-1.7-1.1 0-1.9.9-1.9 1.9 0 .6.2 1.1.6 1.4l3.2 3.2.1.1.1-.1 3.2-3.2c.1-.3.4-.8.4-1.4z" fill="url(#COUPLE_15_)"/><linearGradient id="COUPLE_16_" gradientUnits="userSpaceOnUse" x1="20.21" y1="31.63" x2="23.686" y2="37.651" gradientTransform="matrix(1 0 0 -1 0 51.465)"><stop offset="0" stop-color="#0087c6"/><stop offset="1" stop-color="#64d8c6"/></linearGradient><path d="M26.1 16.3c0-1.1-.9-1.9-1.9-1.9-1 0-1.8.7-1.9 1.7-.1-1-.9-1.7-1.9-1.7-1.1 0-1.9.9-1.9 1.9 0 .6.2 1.1.6 1.4l3.2 3.2.1.1.1-.1 3.2-3.2c.2-.3.4-.8.4-1.4z" fill="url(#COUPLE_16_)"/><linearGradient id="COUPLE_17_" gradientUnits="userSpaceOnUse" x1="40.599" y1="33.771" x2="48.344" y2="33.771" gradientTransform="matrix(1 0 0 -1 0 51.465)"><stop offset="0" stop-color="#0087c6"/><stop offset=".173" stop-color="#058bc6"/><stop offset=".39" stop-color="#1598c6"/><stop offset=".632" stop-color="#2fadc6"/><stop offset=".889" stop-color="#52cac6"/><stop offset="1" stop-color="#64d8c6"/></linearGradient><path d="M48.3 16.3c0-1.1-.9-1.9-1.9-1.9-1 0-1.8.7-1.9 1.7-.1-.9-.9-1.7-1.9-1.7-1.1 0-1.9.9-1.9 1.9 0 .6.2 1.1.6 1.4l3.2 3.2.1.1.1-.1 3.2-3.2c.2-.3.4-.8.4-1.4z" fill="url(#COUPLE_17_)"/><linearGradient id="COUPLE_18_" gradientUnits="userSpaceOnUse" x1="64.362" y1="32.788" x2="69.04" y2="37.466" gradientTransform="matrix(1 0 0 -1 0 51.465)"><stop offset="0" stop-color="#0087c6"/><stop offset=".177" stop-color="#179ac6"/><stop offset=".542" stop-color="#41bbc6"/><stop offset=".829" stop-color="#5ad0c6"/><stop offset="1" stop-color="#64d8c6"/></linearGradient><path d="M70.6 16.3c0-1.1-.9-1.9-1.9-1.9-1 0-1.8.7-1.9 1.7-.1-.9-.9-1.7-1.9-1.7-1.1 0-1.9.9-1.9 1.9 0 .6.2 1.1.6 1.4l3.2 3.2.1.1.1-.1 3.2-3.2c.1-.3.4-.8.4-1.4z" fill="url(#COUPLE_18_)"/><linearGradient id="COUPLE_19_" gradientUnits="userSpaceOnUse" x1="12.653" y1="-.298" x2="32.493" y2="-.298" gradientTransform="matrix(1 0 0 -1 0 51.465)"><stop offset="0" stop-color="#007dc6"/><stop offset="1" stop-color="#64d8c6"/></linearGradient><path d="M24.2 55.1c2-.5 4-.7 6-.7l.9-3.2 1.4-5.1-9.9 2.6-9.9 2.5 3.7 3.8 2.3 2.4c1.7-1 3.5-1.8 5.5-2.3z" fill="url(#COUPLE_19_)"/></svg>